<?xml version="1.0" encoding="UTF-8"?><svg xmlns="http://www.w3.org/2000/svg" xmlns:xlink="http://www.w3.org/1999/xlink" fill-opacity="1" color-rendering="auto" color-interpolation="auto" text-rendering="auto" stroke="black" stroke-linecap="square" width="440" stroke-miterlimit="10" shape-rendering="auto" stroke-opacity="1" fill="black" stroke-dasharray="none" font-weight="normal" stroke-width="1" height="791" font-family="'Dialog'" font-style="normal" stroke-linejoin="miter" font-size="12px" stroke-dashoffset="0" image-rendering="auto">
  <!--Generated by ySVG 2.6-->
  <defs id="genericDefs"/>
  <g>
    <g fill="white" text-rendering="geometricPrecision" shape-rendering="geometricPrecision" transform="translate(20,33)" stroke="white">
      <rect x="-20" width="440" height="791" y="-33" clip-path="url(#clipPath2)" stroke="none"/>
    </g>
    <g onmouseout="HideTooltip(evt)" id="y.node.0" onmousemove="ShowTooltip(evt)">
      <g text-rendering="geometricPrecision" shape-rendering="geometricPrecision" transform="matrix(1.3807,0,0,1.3618,236.8349,425.2763)">
        <g>
          <svg opacity="1" writing-mode="lr-tb" stop-color="rgb(0, 0, 0)" shape-rendering="auto" glyph-orientation-horizontal="0deg" color-profile="auto" lighting-color="rgb(255, 255, 255)" contentStyleType="text/css" color="rgb(0, 0, 0)" font-weight="400" alignment-baseline="auto" font-style="normal" version="1.1" color-interpolation-filters="linearrgb" text-anchor="start" stroke-linecap="butt" color-interpolation="srgb" font-variant="normal" word-spacing="normal" fill-opacity="1" text-rendering="auto" clip-path="none" text-decoration="none" letter-spacing="normal" viewBox="0 0 48 48" glyph-orientation-vertical="auto" display="inline" font-size-adjust="none" overflow="hidden" fill="rgb(0, 0, 0)" font-stretch="normal" stroke-dasharray="none" stroke-miterlimit="4" stop-opacity="1" color-rendering="auto" font-size="12" pointer-events="visiblepainted" mask="none" direction="ltr" baseline-shift="baseline" enable-background="accumulate" fill-rule="nonzero" zoomAndPan="magnify" image-rendering="auto" stroke-dashoffset="0" width="48px" marker-end="none" clip="auto" cursor="auto" stroke="none" filter="none" visibility="visible" kerning="auto" stroke-width="1" font-family="&quot;Arial&quot;,&quot;Helvetica&quot;,sans-serif" contentScriptType="text/ecmascript" preserveAspectRatio="xMidYMid meet" flood-opacity="1" clip-rule="nonzero" src="none" height="48px" unicode-bidi="normal" stroke-linejoin="miter" stroke-opacity="1" flood-color="rgb(0, 0, 0)" dominant-baseline="auto" marker-start="none" marker-mid="none">
                
            <title>Icon-Resource/IoT/Res_IoT_Certificate_48_Light</title>
                
            <g style="fill:none; stroke-width:1; fill-rule:evenodd; stroke:none;" id="svg1.Icon-Resource/IoT/Res_IoT_Certificate_48">
                      
              <path style="fill:#3F8624;" d="M29.9482,35.041 L31.9482,35.041 L31.9482,45 C31.9482,45.371 31.7422,45.712 31.4142,45.885 C31.2672,45.962 31.1072,46 30.9482,46 C30.7492,46 30.5522,45.94 30.3822,45.824 L24.0202,41.45 L17.6592,45.824 C17.3522,46.034 16.9562,46.058 16.6272,45.885 C16.2992,45.712 16.0932,45.371 16.0932,45 L16.0932,35.041 L18.0932,35.041 L18.0932,43.099 L23.4542,39.412 C23.7962,39.178 24.2452,39.178 24.5872,39.412 L29.9482,43.099 L29.9482,35.041 Z M9.0002,19.02 C9.0002,10.738 15.7382,4 24.0202,4 C32.3022,4 39.0412,10.738 39.0412,19.02 C39.0412,27.303 32.3022,34.041 24.0202,34.041 C15.7382,34.041 9.0002,27.303 9.0002,19.02 Z M7.0002,19.02 C7.0002,28.405 14.6352,36.041 24.0202,36.041 C33.4052,36.041 41.0412,28.405 41.0412,19.02 C41.0412,9.636 33.4052,2 24.0202,2 C14.6352,2 7.0002,9.636 7.0002,19.02 Z M15.2682,19.453 C15.2682,18.987 15.6472,18.608 16.1142,18.608 C16.5802,18.608 16.9592,18.987 16.9592,19.453 C16.9592,19.919 16.5802,20.298 16.1142,20.298 C15.6472,20.298 15.2682,19.919 15.2682,19.453 Z M13.2682,19.453 C13.2682,21.021 14.5452,22.298 16.1142,22.298 C17.6822,22.298 18.9592,21.021 18.9592,19.453 C18.9592,17.885 17.6822,16.608 16.1142,16.608 C14.5452,16.608 13.2682,17.885 13.2682,19.453 Z M34.6482,20.186 L23.7302,20.186 C23.2902,20.186 22.9012,20.474 22.7732,20.895 C22.1182,23.061 20.1832,24.515 17.9592,24.515 C15.1682,24.515 12.8962,22.244 12.8962,19.453 C12.8962,16.662 15.1682,14.392 17.9592,14.392 C20.1832,14.392 22.1182,15.847 22.7732,18.012 C22.9012,18.434 23.2902,18.722 23.7302,18.722 L25.6012,18.722 C25.8792,18.722 26.1432,18.606 26.3322,18.404 L27.1832,17.493 L28.0332,18.404 C28.2222,18.606 28.4872,18.722 28.7642,18.722 L29.8192,18.722 C30.0962,18.722 30.3612,18.606 30.5512,18.404 L31.4002,17.493 L32.2502,18.404 C32.4392,18.606 32.7042,18.722 32.9812,18.722 L34.2052,18.722 L35.2222,19.558 L34.6482,20.186 Z M35.1972,16.948 C35.0182,16.802 34.7942,16.722 34.5622,16.722 L33.4162,16.722 L32.1322,15.345 C31.7532,14.94 31.0482,14.94 30.6692,15.345 L29.3852,16.722 L29.1992,16.722 L27.9152,15.345 C27.7252,15.143 27.4612,15.027 27.1832,15.027 C26.9062,15.027 26.6412,15.143 26.4532,15.345 L25.1672,16.722 L24.4322,16.722 C23.3362,14.104 20.8202,12.392 17.9592,12.392 C14.0642,12.392 10.8962,15.56 10.8962,19.453 C10.8962,23.347 14.0642,26.515 17.9592,26.515 C20.8202,26.515 23.3362,24.804 24.4322,22.186 L35.0902,22.186 C35.3712,22.186 35.6382,22.067 35.8282,21.86 L37.4102,20.128 C37.5952,19.925 37.6882,19.655 37.6692,19.382 C37.6492,19.107 37.5182,18.854 37.3062,18.68 L35.1972,16.948 Z" id="svg1.Amazon-IOT-RESOURCES-IoT-certificate_Resource-Icon_light-bg"/>
                  
            </g>
            
          </svg>
        </g>
      </g>
      <g>
        <g text-rendering="geometricPrecision" stroke-miterlimit="1.45" shape-rendering="geometricPrecision" font-family="sans-serif" transform="matrix(1,0,0,1,20,33)" stroke-linecap="butt">
          <text x="222.9912" xml:space="preserve" y="473.0645" stroke="none">Certificate</text>
        </g>
      </g>
    </g>
    <g onmouseout="HideTooltip(evt)" id="y.node.1" onmousemove="ShowTooltip(evt)">
      <g text-rendering="geometricPrecision" shape-rendering="geometricPrecision" transform="matrix(1.3668,0,0,1.3663,137.1984,175.2674)">
        <g>
          <svg opacity="1" writing-mode="lr-tb" stop-color="rgb(0, 0, 0)" shape-rendering="auto" glyph-orientation-horizontal="0deg" color-profile="auto" lighting-color="rgb(255, 255, 255)" contentStyleType="text/css" color="rgb(0, 0, 0)" font-weight="400" alignment-baseline="auto" font-style="normal" version="1.1" color-interpolation-filters="linearrgb" text-anchor="start" stroke-linecap="butt" color-interpolation="srgb" font-variant="normal" word-spacing="normal" fill-opacity="1" text-rendering="auto" clip-path="none" text-decoration="none" letter-spacing="normal" viewBox="0 0 48 48" glyph-orientation-vertical="auto" display="inline" font-size-adjust="none" overflow="hidden" fill="rgb(0, 0, 0)" font-stretch="normal" stroke-dasharray="none" stroke-miterlimit="4" stop-opacity="1" color-rendering="auto" font-size="12" pointer-events="visiblepainted" mask="none" direction="ltr" baseline-shift="baseline" enable-background="accumulate" fill-rule="nonzero" zoomAndPan="magnify" image-rendering="auto" stroke-dashoffset="0" width="48px" marker-end="none" clip="auto" cursor="auto" stroke="none" filter="none" visibility="visible" kerning="auto" stroke-width="1" font-family="&quot;Arial&quot;,&quot;Helvetica&quot;,sans-serif" contentScriptType="text/ecmascript" preserveAspectRatio="xMidYMid meet" flood-opacity="1" clip-rule="nonzero" src="none" height="48px" unicode-bidi="normal" stroke-linejoin="miter" stroke-opacity="1" flood-color="rgb(0, 0, 0)" dominant-baseline="auto" marker-start="none" marker-mid="none">
                
            <title>Icon-Resource/IoT/Res_IoT_Topic_48_Light</title>
                
            <g style="fill:none; stroke-width:1; fill-rule:evenodd; stroke:none;" id="svg2.Icon-Resource/IoT/Res_IoT_Topic_48">
                      
              <path style="fill:#3F8624;" d="M11,39.954 L11,14.329 C13.77,15.995 19.001,16.648 23.998,16.648 C28.807,16.648 34.168,15.972 36.996,14.241 L36.996,39.954 C36.996,41.568 31.933,43.914 23.998,43.914 C16.063,43.914 11,41.568 11,39.954 Z M38.97,11.32 C38.958,11.169 38.951,11.015 38.916,10.876 C38.578,9.473 37.218,8.279 34.871,7.331 L34.121,9.185 C35.738,9.839 36.804,10.645 36.974,11.351 C36.977,11.367 36.977,11.384 36.979,11.4 C36.813,12.696 32.598,14.477 25.06,14.633 L22.922,14.633 C15.231,14.483 11.104,12.756 11.01,11.466 C11.014,11.426 11.015,11.386 11.025,11.343 C11.192,10.645 12.258,9.839 13.875,9.185 L13.125,7.331 C10.778,8.279 9.418,9.473 9.083,10.867 C9.038,11.045 9.022,11.234 9.015,11.42 L9,11.42 C9,11.44 9.007,11.458 9.008,11.477 C9.007,11.498 9,11.518 9,11.538 L9,39.954 C9,43.825 16.727,45.914 23.998,45.914 C31.269,45.914 38.996,43.825 38.996,39.954 L38.996,11.538 C38.996,11.5 38.984,11.464 38.982,11.425 C38.984,11.39 38.996,11.356 38.996,11.32 L38.97,11.32 Z M23.998,9.001 L18.656,4 L29.34,4 L23.998,9.001 Z M17.124,5.307 L23.314,11.101 C23.507,11.28 23.753,11.37 23.998,11.37 C24.243,11.37 24.489,11.28 24.682,11.101 L30.872,5.307 L30.872,12.536 L32.872,12.536 L32.872,3 C32.872,2.447 32.425,2 31.872,2 L16.124,2 C15.571,2 15.124,2.447 15.124,3 L15.124,12.536 L17.124,12.536 L17.124,5.307 Z" id="svg2.Amazon-IOT-RESOURCES-IoT-topic_Resource-Icon_light-bg"/>
                  
            </g>
            
          </svg>
        </g>
      </g>
      <g>
        <g text-rendering="geometricPrecision" stroke-miterlimit="1.45" shape-rendering="geometricPrecision" font-family="sans-serif" transform="matrix(1,0,0,1,20,33)" stroke-linecap="butt">
          <text x="57.9244" xml:space="preserve" y="171.9678" stroke="none">Message</text>
        </g>
        <g text-rendering="geometricPrecision" stroke-miterlimit="1.45" shape-rendering="geometricPrecision" font-family="sans-serif" transform="matrix(1,0,0,1,20,33)" stroke-linecap="butt">
          <text x="67.5982" xml:space="preserve" y="186.669" stroke="none">Topic</text>
        </g>
      </g>
    </g>
    <g onmouseout="HideTooltip(evt)" id="y.node.2" onmousemove="ShowTooltip(evt)">
      <g text-rendering="geometricPrecision" shape-rendering="geometricPrecision" transform="matrix(1.3648,0,0,1.3648,137.2704,425.271)">
        <g>
          <svg opacity="1" writing-mode="lr-tb" stop-color="rgb(0, 0, 0)" shape-rendering="auto" glyph-orientation-horizontal="0deg" color-profile="auto" lighting-color="rgb(255, 255, 255)" contentStyleType="text/css" color="rgb(0, 0, 0)" font-weight="400" alignment-baseline="auto" font-style="normal" version="1.1" color-interpolation-filters="linearrgb" text-anchor="start" stroke-linecap="butt" color-interpolation="srgb" font-variant="normal" word-spacing="normal" fill-opacity="1" text-rendering="auto" clip-path="none" text-decoration="none" letter-spacing="normal" viewBox="0 0 48 48" glyph-orientation-vertical="auto" display="inline" font-size-adjust="none" overflow="hidden" fill="rgb(0, 0, 0)" font-stretch="normal" stroke-dasharray="none" stroke-miterlimit="4" stop-opacity="1" color-rendering="auto" font-size="12" pointer-events="visiblepainted" mask="none" direction="ltr" baseline-shift="baseline" enable-background="accumulate" fill-rule="nonzero" zoomAndPan="magnify" image-rendering="auto" stroke-dashoffset="0" width="48px" marker-end="none" clip="auto" cursor="auto" stroke="none" filter="none" visibility="visible" kerning="auto" stroke-width="1" font-family="&quot;Arial&quot;,&quot;Helvetica&quot;,sans-serif" contentScriptType="text/ecmascript" preserveAspectRatio="xMidYMid meet" flood-opacity="1" clip-rule="nonzero" src="none" height="48px" unicode-bidi="normal" stroke-linejoin="miter" stroke-opacity="1" flood-color="rgb(0, 0, 0)" dominant-baseline="auto" marker-start="none" marker-mid="none">
                
            <title>Icon-Resource/IoT/Res_IoT-MQT_Protocol_48_Light</title>
                
            <g style="fill:none; stroke-width:1; fill-rule:evenodd; stroke:none;" id="svg3.Icon-Resource/IoT/Res_IoT-MQT_Protocol_48">
                      
              <path style="fill:#3F8624;" d="M31.3459,38.7085 C31.3459,37.7435 31.2019,37.0165 30.9159,36.5265 C30.6299,36.0375 30.2019,35.7925 29.6359,35.7925 C29.0689,35.7925 28.6439,36.0375 28.3559,36.5265 C28.0689,37.0165 27.9259,37.7435 27.9259,38.7085 C27.9259,39.6735 28.0689,40.4035 28.3559,40.8955 C28.6439,41.3885 29.0689,41.6355 29.6359,41.6355 C30.2019,41.6355 30.6299,41.3885 30.9159,40.8955 C31.2019,40.4035 31.3459,39.6735 31.3459,38.7085 Z M18.8609,43.9605 L32.0189,43.9605 C31.5959,43.8745 31.1869,43.7445 30.8009,43.5345 C30.3249,43.2755 29.8889,42.9295 29.4889,42.4965 C28.9369,42.4675 28.4649,42.2995 28.0729,41.9925 C27.6819,41.6845 27.3869,41.2505 27.1869,40.6915 C26.9879,40.1315 26.8879,39.4705 26.8879,38.7085 C26.8879,37.5125 27.1289,36.5835 27.6109,35.9235 C28.0949,35.2625 28.7699,34.9325 29.6359,34.9325 C30.5029,34.9325 31.1789,35.2625 31.6609,35.9235 C32.1439,36.5835 32.3839,37.5125 32.3839,38.7085 C32.3839,39.7025 32.2169,40.5145 31.8819,41.1475 C31.5459,41.7815 31.0659,42.1915 30.4439,42.3795 C30.7239,42.6045 31.0149,42.7755 31.3149,42.8945 C31.6149,43.0125 31.9469,43.0925 32.3119,43.1355 L32.3119,43.9605 L40.1959,43.9605 L43.9609,43.9605 L43.9609,40.1965 L43.9609,32.8485 L18.8609,32.8485 L18.8609,43.9605 Z M16.8609,30.8485 L45.9609,30.8485 L45.9609,40.1965 L45.9609,45.9605 L40.1959,45.9605 L16.8609,45.9605 L16.8609,30.8485 Z M7.7639,1.9995 C4.5859,1.9995 1.9999,4.5855 1.9999,7.7645 L1.9999,40.1965 C1.9999,43.3745 4.5859,45.9605 7.7639,45.9605 L15.2379,45.9605 L15.2379,43.9605 L7.7639,43.9605 C5.6879,43.9605 3.9999,42.2725 3.9999,40.1965 L3.9999,7.7645 C3.9999,5.6885 5.6879,3.9995 7.7639,3.9995 L40.1959,3.9995 C42.2719,3.9995 43.9609,5.6885 43.9609,7.7645 L43.9609,29.2255 L45.9609,29.2255 L45.9609,7.7645 C45.9609,4.5855 43.3749,1.9995 40.1959,1.9995 L7.7639,1.9995 Z M39.9889,42.3375 L41.0079,42.3375 L41.0079,35.9185 L42.8209,35.9185 L42.8209,35.0695 L38.1859,35.0695 L38.1859,35.9185 L39.9889,35.9185 L39.9889,42.3375 Z M34.7439,42.3375 L35.7629,42.3375 L35.7629,35.9185 L37.5769,35.9185 L37.5769,35.0695 L32.9409,35.0695 L32.9409,35.9185 L34.7439,35.9185 L34.7439,42.3375 Z M24.3809,35.0695 L25.4809,35.0695 L25.4809,42.3375 L24.5689,42.3375 L24.5689,36.6425 L23.0799,40.4705 L22.1669,40.4705 L20.6779,36.6425 L20.6779,42.3375 L19.7649,42.3375 L19.7649,35.0695 L20.9089,35.0695 L22.6389,39.5165 L24.3809,35.0695 Z" id="svg3.Amazon-IOT-RESOURCES-IoT-MQT-protocol_Resource-Icon_light-bg"/>
                  
            </g>
            
          </svg>
        </g>
      </g>
      <g/>
    </g>
    <g onmouseout="HideTooltip(evt)" id="y.node.3" onmousemove="ShowTooltip(evt)">
      <g text-rendering="geometricPrecision" shape-rendering="geometricPrecision" transform="matrix(1.3653,0,0,1.3653,137.2698,550.2693)">
        <g>
          <svg opacity="1" writing-mode="lr-tb" stop-color="rgb(0, 0, 0)" shape-rendering="auto" glyph-orientation-horizontal="0deg" color-profile="auto" lighting-color="rgb(255, 255, 255)" contentStyleType="text/css" color="rgb(0, 0, 0)" font-weight="400" alignment-baseline="auto" font-style="normal" version="1.1" color-interpolation-filters="linearrgb" text-anchor="start" stroke-linecap="butt" color-interpolation="srgb" font-variant="normal" word-spacing="normal" fill-opacity="1" text-rendering="auto" clip-path="none" text-decoration="none" letter-spacing="normal" viewBox="0 0 48 48" glyph-orientation-vertical="auto" display="inline" font-size-adjust="none" overflow="hidden" fill="rgb(0, 0, 0)" font-stretch="normal" stroke-dasharray="none" stroke-miterlimit="4" stop-opacity="1" color-rendering="auto" font-size="12" pointer-events="visiblepainted" mask="none" direction="ltr" baseline-shift="baseline" enable-background="accumulate" fill-rule="nonzero" zoomAndPan="magnify" image-rendering="auto" stroke-dashoffset="0" width="48px" marker-end="none" clip="auto" cursor="auto" stroke="none" filter="none" visibility="visible" kerning="auto" stroke-width="1" font-family="&quot;Arial&quot;,&quot;Helvetica&quot;,sans-serif" contentScriptType="text/ecmascript" preserveAspectRatio="xMidYMid meet" flood-opacity="1" clip-rule="nonzero" src="none" height="48px" unicode-bidi="normal" stroke-linejoin="miter" stroke-opacity="1" flood-color="rgb(0, 0, 0)" dominant-baseline="auto" marker-start="none" marker-mid="none">
                
            <title>Icon-Resource/IoT/Res_IoT-Thing_Generic_48_Light</title>
                
            <g style="fill:none; stroke-width:1; fill-rule:evenodd; stroke:none;" id="svg4.Icon-Resource/IoT/Res_IoT-Thing_Generic_48">
                      
              <path style="fill:#3F8624;" d="M20.4567,22.094 C19.5547,22.094 18.8207,21.359 18.8207,20.457 C18.8207,19.555 19.5547,18.82 20.4567,18.82 C21.3597,18.82 22.0937,19.555 22.0937,20.457 C22.0937,21.359 21.3597,22.094 20.4567,22.094 Z M27.4887,25.852 C28.3907,25.852 29.1247,26.586 29.1247,27.488 C29.1247,28.391 28.3907,29.125 27.4887,29.125 C26.5857,29.125 25.8517,28.391 25.8517,27.488 C25.8517,26.586 26.5857,25.852 27.4887,25.852 Z M15.3047,32.641 L15.3047,28.488 L24.0087,28.488 C24.4477,30.006 25.8327,31.125 27.4887,31.125 C29.4927,31.125 31.1247,29.493 31.1247,27.488 C31.1247,25.483 29.4927,23.852 27.4887,23.852 C25.8327,23.852 24.4477,24.971 24.0087,26.488 L15.3047,26.488 L15.3047,15.305 L32.6407,15.305 L32.6407,19.457 L23.9367,19.457 C23.4977,17.939 22.1137,16.82 20.4567,16.82 C18.4517,16.82 16.8207,18.452 16.8207,20.457 C16.8207,22.462 18.4517,24.094 20.4567,24.094 C22.1137,24.094 23.4977,22.975 23.9367,21.457 L32.6407,21.457 L32.6407,32.641 L15.3047,32.641 Z M14.3047,13.305 C13.7517,13.305 13.3047,13.752 13.3047,14.305 L13.3047,33.641 C13.3047,34.193 13.7517,34.641 14.3047,34.641 L33.6407,34.641 C34.1937,34.641 34.6407,34.193 34.6407,33.641 L34.6407,14.305 C34.6407,13.752 34.1937,13.305 33.6407,13.305 L14.3047,13.305 Z M39.6697,38.537 C39.6697,39.163 39.1607,39.672 38.5347,39.672 L9.4097,39.672 C8.7837,39.672 8.2757,39.163 8.2757,38.537 L8.2757,9.423 C8.2757,8.797 8.7837,8.288 9.4097,8.288 L38.5347,8.288 C39.1607,8.288 39.6697,8.797 39.6697,9.423 L39.6697,38.537 Z M45.9457,14.426 L45.9457,12.426 L41.6697,12.426 L41.6697,9.423 C41.6697,7.694 40.2637,6.288 38.5347,6.288 L35.5197,6.288 L35.5197,2 L33.5197,2 L33.5197,6.288 L30.2457,6.288 L30.2457,2 L28.2457,2 L28.2457,6.288 L24.9727,6.288 L24.9727,2 L22.9727,2 L22.9727,6.288 L19.6987,6.288 L19.6987,2 L17.6987,2 L17.6987,6.288 L14.4257,6.288 L14.4257,2 L12.4257,2 L12.4257,6.288 L9.4097,6.288 C7.6817,6.288 6.2757,7.694 6.2757,9.423 L6.2757,12.426 L1.9997,12.426 L1.9997,14.426 L6.2757,14.426 L6.2757,17.699 L1.9997,17.699 L1.9997,19.699 L6.2757,19.699 L6.2757,22.973 L1.9997,22.973 L1.9997,24.973 L6.2757,24.973 L6.2757,28.246 L1.9997,28.246 L1.9997,30.246 L6.2757,30.246 L6.2757,33.52 L1.9997,33.52 L1.9997,35.52 L6.2757,35.52 L6.2757,38.537 C6.2757,40.266 7.6817,41.672 9.4097,41.672 L12.4257,41.672 L12.4257,45.945 L14.4257,45.945 L14.4257,41.672 L17.6987,41.672 L17.6987,45.945 L19.6987,45.945 L19.6987,41.672 L22.9727,41.672 L22.9727,45.945 L24.9727,45.945 L24.9727,41.672 L28.2457,41.672 L28.2457,45.945 L30.2457,45.945 L30.2457,41.672 L33.5197,41.672 L33.5197,45.945 L35.5197,45.945 L35.5197,41.672 L38.5347,41.672 C40.2637,41.672 41.6697,40.266 41.6697,38.537 L41.6697,35.52 L45.9457,35.52 L45.9457,33.52 L41.6697,33.52 L41.6697,30.246 L45.9457,30.246 L45.9457,28.246 L41.6697,28.246 L41.6697,24.973 L45.9457,24.973 L45.9457,22.973 L41.6697,22.973 L41.6697,19.699 L45.9457,19.699 L45.9457,17.699 L41.6697,17.699 L41.6697,14.426 L45.9457,14.426 Z" id="svg4.Amazon-IOT-RESOURCES-IoT-thing-generic_Resource-Icon_light-bg"/>
                  
            </g>
            
          </svg>
        </g>
      </g>
      <g>
        <g text-rendering="geometricPrecision" stroke-miterlimit="1.45" shape-rendering="geometricPrecision" font-family="sans-serif" transform="matrix(1,0,0,1,20,33)" stroke-linecap="butt">
          <text x="172.6417" xml:space="preserve" y="511.3633" stroke="none">MCU</text>
        </g>
      </g>
    </g>
    <g onmouseout="HideTooltip(evt)" id="y.node.4" onmousemove="ShowTooltip(evt)">
      <g text-rendering="geometricPrecision" shape-rendering="geometricPrecision" transform="matrix(1.3636,0,0,1.3636,12.2727,550.2734)">
        <g>
          <svg opacity="1" writing-mode="lr-tb" stop-color="rgb(0, 0, 0)" shape-rendering="auto" glyph-orientation-horizontal="0deg" color-profile="auto" lighting-color="rgb(255, 255, 255)" contentStyleType="text/css" color="rgb(0, 0, 0)" font-weight="400" alignment-baseline="auto" font-style="normal" version="1.1" color-interpolation-filters="linearrgb" text-anchor="start" stroke-linecap="butt" color-interpolation="srgb" font-variant="normal" word-spacing="normal" fill-opacity="1" text-rendering="auto" clip-path="none" text-decoration="none" letter-spacing="normal" viewBox="0 0 48 48" glyph-orientation-vertical="auto" display="inline" font-size-adjust="none" overflow="hidden" fill="rgb(0, 0, 0)" font-stretch="normal" stroke-dasharray="none" stroke-miterlimit="4" stop-opacity="1" color-rendering="auto" font-size="12" pointer-events="visiblepainted" mask="none" direction="ltr" baseline-shift="baseline" enable-background="accumulate" fill-rule="nonzero" zoomAndPan="magnify" image-rendering="auto" stroke-dashoffset="0" width="48px" marker-end="none" clip="auto" cursor="auto" stroke="none" filter="none" visibility="visible" kerning="auto" stroke-width="1" font-family="&quot;Arial&quot;,&quot;Helvetica&quot;,sans-serif" contentScriptType="text/ecmascript" preserveAspectRatio="xMidYMid meet" flood-opacity="1" clip-rule="nonzero" src="none" height="48px" unicode-bidi="normal" stroke-linejoin="miter" stroke-opacity="1" flood-color="rgb(0, 0, 0)" dominant-baseline="auto" marker-start="none" marker-mid="none">
                
            <title>Icon-Resource/IoT/Res_AWS-IoT_Thing_Humidity-Sensor_48_Light</title>
                
            <g style="fill:none; stroke-width:1; fill-rule:evenodd; stroke:none;" id="svg5.Icon-Resource/IoT/Res_AWS-IoT_Thing_Humidity-Sensor_48">
                      
              <path style="fill:#3F8624;" d="M30.115,21.9995 C28.758,21.9995 27.654,20.8955 27.654,19.5385 C27.654,18.0605 29.072,15.9065 30.115,14.5655 C31.159,15.9065 32.577,18.0605 32.577,19.5385 C32.577,20.8955 31.472,21.9995 30.115,21.9995 L30.115,21.9995 Z M29.372,12.3305 C28.991,12.7535 25.654,16.5485 25.654,19.5385 C25.654,21.9985 27.655,23.9995 30.115,23.9995 C32.575,23.9995 34.577,21.9985 34.577,19.5385 C34.577,16.5485 31.239,12.7535 30.858,12.3305 C30.479,11.9085 29.751,11.9095 29.372,12.3305 L29.372,12.3305 Z M16.423,22.9995 C15.638,22.9995 15,22.3615 15,21.5765 C15,20.7805 15.711,19.5575 16.421,18.5925 C17.103,19.5235 17.845,20.7675 17.845,21.5765 C17.845,22.3615 17.207,22.9995 16.423,22.9995 L16.423,22.9995 Z M19.845,21.5765 C19.845,19.3725 17.44,16.6355 17.166,16.3305 C16.787,15.9085 16.058,15.9085 15.679,16.3305 C15.405,16.6355 13,19.3725 13,21.5765 C13,23.4635 14.535,24.9995 16.423,24.9995 C18.31,24.9995 19.845,23.4635 19.845,21.5765 L19.845,21.5765 Z M23.5,33.9995 C21.57,33.9995 20,32.4295 20,30.4995 C20,28.3835 22.107,25.2935 23.5,23.5515 C24.892,25.2935 27,28.3835 27,30.4995 C27,32.4295 25.429,33.9995 23.5,33.9995 L23.5,33.9995 Z M22.757,21.3305 C22.562,21.5465 18,26.6605 18,30.4995 C18,33.5325 20.468,35.9995 23.5,35.9995 C26.532,35.9995 29,33.5325 29,30.4995 C29,26.6605 24.437,21.5465 24.243,21.3305 C23.864,20.9085 23.136,20.9085 22.757,21.3305 L22.757,21.3305 Z M39,37.8655 C39,38.4905 38.491,38.9995 37.865,38.9995 L10.135,38.9995 C9.509,38.9995 9,38.4905 9,37.8655 L9,10.1345 C9,9.5095 9.509,8.9995 10.135,8.9995 L37.865,8.9995 C38.491,8.9995 39,9.5095 39,10.1345 L39,37.8655 Z M46,14.9995 L46,12.9995 L41,12.9995 L41,10.1345 C41,8.4065 39.594,6.9995 37.865,6.9995 L35,6.9995 L35,1.9995 L33,1.9995 L33,6.9995 L30,6.9995 L30,1.9995 L28,1.9995 L28,6.9995 L25,6.9995 L25,1.9995 L23,1.9995 L23,6.9995 L20,6.9995 L20,1.9995 L18,1.9995 L18,6.9995 L15,6.9995 L15,1.9995 L13,1.9995 L13,6.9995 L10.135,6.9995 C8.406,6.9995 7,8.4065 7,10.1345 L7,12.9995 L2,12.9995 L2,14.9995 L7,14.9995 L7,17.9995 L2,17.9995 L2,19.9995 L7,19.9995 L7,22.9995 L2,22.9995 L2,24.9995 L7,24.9995 L7,27.9995 L2,27.9995 L2,29.9995 L7,29.9995 L7,32.9995 L2,32.9995 L2,34.9995 L7,34.9995 L7,37.8655 C7,39.5935 8.406,40.9995 10.135,40.9995 L13,40.9995 L13,45.9995 L15,45.9995 L15,40.9995 L18,40.9995 L18,45.9995 L20,45.9995 L20,40.9995 L23,40.9995 L23,45.9995 L25,45.9995 L25,40.9995 L28,40.9995 L28,45.9995 L30,45.9995 L30,40.9995 L33,40.9995 L33,45.9995 L35,45.9995 L35,40.9995 L37.865,40.9995 C39.594,40.9995 41,39.5935 41,37.8655 L41,34.9995 L46,34.9995 L46,32.9995 L41,32.9995 L41,29.9995 L46,29.9995 L46,27.9995 L41,27.9995 L41,24.9995 L46,24.9995 L46,22.9995 L41,22.9995 L41,19.9995 L46,19.9995 L46,17.9995 L41,17.9995 L41,14.9995 L46,14.9995 Z" id="svg5.Fill-1"/>
                  
            </g>
            
          </svg>
        </g>
      </g>
      <g>
        <g text-rendering="geometricPrecision" stroke-miterlimit="1.45" shape-rendering="geometricPrecision" font-family="sans-serif" transform="matrix(1,0,0,1,20,33)" stroke-linecap="butt">
          <text x="2.9863" xml:space="preserve" y="598.0645" stroke="none">Moisture</text>
          <text x="6.9824" xml:space="preserve" y="612.7656" stroke="none">Sensor</text>
        </g>
      </g>
    </g>
    <g onmouseout="HideTooltip(evt)" id="y.node.5" onmousemove="ShowTooltip(evt)">
      <g text-rendering="geometricPrecision" shape-rendering="geometricPrecision" transform="matrix(1.3636,0,0,1.3636,262.2727,550.2727)">
        <g>
          <svg opacity="1" writing-mode="lr-tb" stop-color="rgb(0, 0, 0)" shape-rendering="auto" glyph-orientation-horizontal="0deg" color-profile="auto" lighting-color="rgb(255, 255, 255)" contentStyleType="text/css" color="rgb(0, 0, 0)" font-weight="400" alignment-baseline="auto" font-style="normal" version="1.1" color-interpolation-filters="linearrgb" text-anchor="start" stroke-linecap="butt" color-interpolation="srgb" font-variant="normal" word-spacing="normal" fill-opacity="1" text-rendering="auto" clip-path="none" text-decoration="none" letter-spacing="normal" viewBox="0 0 48 48" glyph-orientation-vertical="auto" display="inline" font-size-adjust="none" overflow="hidden" fill="rgb(0, 0, 0)" font-stretch="normal" stroke-dasharray="none" stroke-miterlimit="4" stop-opacity="1" color-rendering="auto" font-size="12" pointer-events="visiblepainted" mask="none" direction="ltr" baseline-shift="baseline" enable-background="accumulate" fill-rule="nonzero" zoomAndPan="magnify" image-rendering="auto" stroke-dashoffset="0" width="48px" marker-end="none" clip="auto" cursor="auto" stroke="none" filter="none" visibility="visible" kerning="auto" stroke-width="1" font-family="&quot;Arial&quot;,&quot;Helvetica&quot;,sans-serif" contentScriptType="text/ecmascript" preserveAspectRatio="xMidYMid meet" flood-opacity="1" clip-rule="nonzero" src="none" height="48px" unicode-bidi="normal" stroke-linejoin="miter" stroke-opacity="1" flood-color="rgb(0, 0, 0)" dominant-baseline="auto" marker-start="none" marker-mid="none">
                
            <title>Icon-Resource/IoT/Res_AWS-IoT_Thing_Relay_48_Light</title>
                
            <g style="fill:none; stroke-width:1; fill-rule:evenodd; stroke:none;" id="svg6.Icon-Resource/IoT/Res_AWS-IoT_Thing_Relay_48">
                      
              <path style="fill:#3F8624;" d="M22,33 L24,33 L24,15 L22,15 L22,33 Z M31,30 C30.173,30 29.5,29.327 29.5,28.5 C29.5,27.672 30.173,27 31,27 C31.827,27 32.5,27.672 32.5,28.5 C32.5,29.327 31.827,30 31,30 L31,30 Z M32.823,25.526 C32.291,25.198 31.67,25 31,25 C29.07,25 27.5,26.57 27.5,28.5 C27.5,30.08 28.56,31.403 30,31.836 L30,36 L32,36 L32,31.836 C33.44,31.403 34.5,30.08 34.5,28.5 C34.5,27.986 34.383,27.502 34.184,27.063 L38.1,21.581 L36.473,20.418 L32.823,25.526 Z M31,18 C31.827,18 32.5,18.672 32.5,19.5 C32.5,20.327 31.827,21 31,21 C30.173,21 29.5,20.327 29.5,19.5 C29.5,18.672 30.173,18 31,18 L31,18 Z M31,23 C32.93,23 34.5,21.429 34.5,19.5 C34.5,17.919 33.44,16.596 32,16.163 L32,12 L30,12 L30,16.163 C28.56,16.596 27.5,17.919 27.5,19.5 C27.5,21.429 29.07,23 31,23 L31,23 Z M18.485,21.363 C19.424,22.017 20,22.939 20,23.977 C20,25.014 19.424,25.937 18.485,26.59 C19.424,27.244 20,28.167 20,29.204 C20,30.982 18.309,32.422 16,32.749 L16,36 L14,36 L14,31.818 C14,31.266 14.447,30.818 15,30.818 C16.717,30.818 18,29.966 18,29.204 C18,28.442 16.717,27.59 15,27.59 C14.447,27.59 14,27.143 14,26.59 C14,26.038 14.447,25.59 15,25.59 C16.717,25.59 18,24.738 18,23.977 C18,23.215 16.717,22.363 15,22.363 C14.447,22.363 14,21.916 14,21.363 C14,20.811 14.447,20.363 15,20.363 C16.717,20.363 18,19.511 18,18.75 C18,17.988 16.717,17.136 15,17.136 C14.447,17.136 14,16.688 14,16.136 L14,12 L16,12 L16,15.205 C18.309,15.531 20,16.971 20,18.75 C20,19.787 19.424,20.71 18.485,21.363 L18.485,21.363 Z M39,37.865 C39,38.491 38.491,39 37.865,39 L10.135,39 C9.509,39 9,38.491 9,37.865 L9,10.135 C9,9.509 9.509,9 10.135,9 L37.865,9 C38.491,9 39,9.509 39,10.135 L39,37.865 Z M46,15 L46,13 L41,13 L41,10.135 C41,8.406 39.594,7 37.865,7 L35,7 L35,2 L33,2 L33,7 L30,7 L30,2 L28,2 L28,7 L25,7 L25,2 L23,2 L23,7 L20,7 L20,2 L18,2 L18,7 L15,7 L15,2 L13,2 L13,7 L10.135,7 C8.406,7 7,8.406 7,10.135 L7,13 L2,13 L2,15 L7,15 L7,18 L2,18 L2,20 L7,20 L7,23 L2,23 L2,25 L7,25 L7,28 L2,28 L2,30 L7,30 L7,33 L2,33 L2,35 L7,35 L7,37.865 C7,39.594 8.406,41 10.135,41 L13,41 L13,46 L15,46 L15,41 L18,41 L18,46 L20,46 L20,41 L23,41 L23,46 L25,46 L25,41 L28,41 L28,46 L30,46 L30,41 L33,41 L33,46 L35,46 L35,41 L37.865,41 C39.594,41 41,39.594 41,37.865 L41,35 L46,35 L46,33 L41,33 L41,30 L46,30 L46,28 L41,28 L41,25 L46,25 L46,23 L41,23 L41,20 L46,20 L46,18 L41,18 L41,15 L46,15 Z" id="svg6.Fill-1"/>
                  
            </g>
            
          </svg>
        </g>
      </g>
      <g>
        <g text-rendering="geometricPrecision" stroke-miterlimit="1.45" shape-rendering="geometricPrecision" font-family="sans-serif" transform="matrix(1,0,0,1,20,33)" stroke-linecap="butt">
          <text x="251.6475" xml:space="preserve" y="598.0645" stroke="none">Solenoid</text>
        </g>
      </g>
    </g>
    <g onmouseout="HideTooltip(evt)" id="y.node.6" onmousemove="ShowTooltip(evt)">
      <g text-rendering="geometricPrecision" shape-rendering="geometricPrecision" transform="matrix(1.3636,0,0,1.3636,262.2727,675.2734)">
        <g>
          <svg opacity="1" writing-mode="lr-tb" stop-color="rgb(0, 0, 0)" shape-rendering="auto" glyph-orientation-horizontal="0deg" color-profile="auto" lighting-color="rgb(255, 255, 255)" contentStyleType="text/css" color="rgb(0, 0, 0)" font-weight="400" alignment-baseline="auto" font-style="normal" version="1.1" color-interpolation-filters="linearrgb" text-anchor="start" stroke-linecap="butt" color-interpolation="srgb" font-variant="normal" word-spacing="normal" fill-opacity="1" text-rendering="auto" clip-path="none" text-decoration="none" letter-spacing="normal" viewBox="0 0 48 48" glyph-orientation-vertical="auto" display="inline" font-size-adjust="none" overflow="hidden" fill="rgb(0, 0, 0)" font-stretch="normal" stroke-dasharray="none" stroke-miterlimit="4" stop-opacity="1" color-rendering="auto" font-size="12" pointer-events="visiblepainted" mask="none" direction="ltr" baseline-shift="baseline" enable-background="accumulate" fill-rule="nonzero" zoomAndPan="magnify" image-rendering="auto" stroke-dashoffset="0" width="48px" marker-end="none" clip="auto" cursor="auto" stroke="none" filter="none" visibility="visible" kerning="auto" stroke-width="1" font-family="&quot;Arial&quot;,&quot;Helvetica&quot;,sans-serif" contentScriptType="text/ecmascript" preserveAspectRatio="xMidYMid meet" flood-opacity="1" clip-rule="nonzero" src="none" height="48px" unicode-bidi="normal" stroke-linejoin="miter" stroke-opacity="1" flood-color="rgb(0, 0, 0)" dominant-baseline="auto" marker-start="none" marker-mid="none">
                
            <title>Icon-Resource/IoT/Res_AWS-IoT_Thing_Temperature-Sensor_48_Light</title>
                
            <g style="fill:none; stroke-width:1; fill-rule:evenodd; stroke:none;" id="svg7.Icon-Resource/IoT/Res_AWS-IoT_Thing_Temperature-Sensor_48">
                      
              <path style="fill:#3F8624;" d="M24,32.9775 C23.448,32.9775 23,32.5285 23,31.9775 C23,31.4265 23.448,30.9775 24,30.9775 C24.552,30.9775 25,31.4265 25,31.9775 C25,32.5285 24.552,32.9775 24,32.9775 L24,32.9775 Z M25,29.1615 L25,17.9995 L23,17.9995 L23,29.1615 C21.839,29.5765 21,30.6755 21,31.9775 C21,33.6315 22.346,34.9775 24,34.9775 C25.654,34.9775 27,33.6315 27,31.9775 C27,30.6755 26.161,29.5765 25,29.1615 L25,29.1615 Z M26.522,35.0815 C25.569,35.8575 24.364,36.1425 23.132,35.8875 C21.588,35.5665 20.356,34.2985 20.069,32.7315 C19.79,31.2055 20.363,29.7345 21.603,28.7975 L22,28.4975 L22,13.9995 C22,12.8965 22.897,11.9995 24,11.9995 C25.103,11.9995 26,12.8965 26,13.9995 L26,28.4985 L26.397,28.7975 C27.416,29.5675 28,30.7265 28,31.9775 C28,33.1865 27.462,34.3175 26.522,35.0815 L26.522,35.0815 Z M28,27.5285 L28,13.9995 C28,11.7945 26.206,9.9995 24,9.9995 C21.794,9.9995 20,11.7945 20,13.9995 L20,27.5295 C18.444,28.9235 17.721,31.0105 18.103,33.0925 C18.535,35.4515 20.393,37.3615 22.726,37.8455 C23.147,37.9335 23.571,37.9765 23.991,37.9765 C25.37,37.9765 26.706,37.5115 27.785,36.6325 C29.192,35.4875 30,33.7905 30,31.9775 C30,30.2645 29.277,28.6685 28,27.5285 L28,27.5285 Z M30,26.9995 L34,26.9995 L34,24.9995 L30,24.9995 L30,26.9995 Z M30,22.9995 L35,22.9995 L35,20.9995 L30,20.9995 L30,22.9995 Z M30,18.9995 L34,18.9995 L34,16.9995 L30,16.9995 L30,18.9995 Z M30,14.9995 L35,14.9995 L35,12.9995 L30,12.9995 L30,14.9995 Z M39,37.8655 C39,38.4905 38.491,38.9995 37.865,38.9995 L10.135,38.9995 C9.509,38.9995 9,38.4905 9,37.8655 L9,10.1345 C9,9.5095 9.509,8.9995 10.135,8.9995 L37.865,8.9995 C38.491,8.9995 39,9.5095 39,10.1345 L39,37.8655 Z M46,14.9995 L46,12.9995 L41,12.9995 L41,10.1345 C41,8.4065 39.594,6.9995 37.865,6.9995 L35,6.9995 L35,1.9995 L33,1.9995 L33,6.9995 L30,6.9995 L30,1.9995 L28,1.9995 L28,6.9995 L25,6.9995 L25,1.9995 L23,1.9995 L23,6.9995 L20,6.9995 L20,1.9995 L18,1.9995 L18,6.9995 L15,6.9995 L15,1.9995 L13,1.9995 L13,6.9995 L10.135,6.9995 C8.406,6.9995 7,8.4065 7,10.1345 L7,12.9995 L2,12.9995 L2,14.9995 L7,14.9995 L7,17.9995 L2,17.9995 L2,19.9995 L7,19.9995 L7,22.9995 L2,22.9995 L2,24.9995 L7,24.9995 L7,27.9995 L2,27.9995 L2,29.9995 L7,29.9995 L7,32.9995 L2,32.9995 L2,34.9995 L7,34.9995 L7,37.8655 C7,39.5935 8.406,40.9995 10.135,40.9995 L13,40.9995 L13,45.9995 L15,45.9995 L15,40.9995 L18,40.9995 L18,45.9995 L20,45.9995 L20,40.9995 L23,40.9995 L23,45.9995 L25,45.9995 L25,40.9995 L28,40.9995 L28,45.9995 L30,45.9995 L30,40.9995 L33,40.9995 L33,45.9995 L35,45.9995 L35,40.9995 L37.865,40.9995 C39.594,40.9995 41,39.5935 41,37.8655 L41,34.9995 L46,34.9995 L46,32.9995 L41,32.9995 L41,29.9995 L46,29.9995 L46,27.9995 L41,27.9995 L41,24.9995 L46,24.9995 L46,22.9995 L41,22.9995 L41,19.9995 L46,19.9995 L46,17.9995 L41,17.9995 L41,14.9995 L46,14.9995 Z" id="svg7.Fill-1"/>
                  
            </g>
            
          </svg>
        </g>
      </g>
      <g>
        <g text-rendering="geometricPrecision" stroke-miterlimit="1.45" shape-rendering="geometricPrecision" font-family="sans-serif" transform="matrix(1,0,0,1,20,33)" stroke-linecap="butt">
          <text x="240.6523" xml:space="preserve" y="723.0645" stroke="none">Temperature</text>
          <text x="255.9893" xml:space="preserve" y="737.7656" stroke="none">Sensor</text>
        </g>
      </g>
    </g>
    <g onmouseout="HideTooltip(evt)" id="y.node.7" onmousemove="ShowTooltip(evt)">
      <g text-rendering="geometricPrecision" shape-rendering="geometricPrecision" transform="matrix(1.3649,0,0,1.3648,237.2702,50.2703)">
        <g>
          <svg opacity="1" writing-mode="lr-tb" stop-color="rgb(0, 0, 0)" shape-rendering="auto" glyph-orientation-horizontal="0deg" color-profile="auto" lighting-color="rgb(255, 255, 255)" contentStyleType="text/css" color="rgb(0, 0, 0)" font-weight="400" alignment-baseline="auto" font-style="normal" version="1.1" color-interpolation-filters="linearrgb" text-anchor="start" stroke-linecap="butt" color-interpolation="srgb" font-variant="normal" word-spacing="normal" fill-opacity="1" text-rendering="auto" clip-path="none" text-decoration="none" letter-spacing="normal" viewBox="0 0 48 48" glyph-orientation-vertical="auto" display="inline" font-size-adjust="none" overflow="hidden" fill="rgb(0, 0, 0)" font-stretch="normal" stroke-dasharray="none" stroke-miterlimit="4" stop-opacity="1" color-rendering="auto" font-size="12" pointer-events="visiblepainted" mask="none" direction="ltr" baseline-shift="baseline" enable-background="accumulate" fill-rule="nonzero" zoomAndPan="magnify" image-rendering="auto" stroke-dashoffset="0" width="48px" marker-end="none" clip="auto" cursor="auto" stroke="none" filter="none" visibility="visible" kerning="auto" stroke-width="1" font-family="&quot;Arial&quot;,&quot;Helvetica&quot;,sans-serif" contentScriptType="text/ecmascript" preserveAspectRatio="xMidYMid meet" flood-opacity="1" clip-rule="nonzero" src="none" height="48px" unicode-bidi="normal" stroke-linejoin="miter" stroke-opacity="1" flood-color="rgb(0, 0, 0)" dominant-baseline="auto" marker-start="none" marker-mid="none">
                
            <title>Icon-Resource/IoT/Res_Lambda_Function_48_Light</title>
                
            <g style="fill:none; stroke-width:1; fill-rule:evenodd; stroke:none;" id="svg8.Icon-Resource/IoT/Res_Lambda_Function_48">
                      
              <path style="fill:#3F8624;" d="M4,23.981 C4,12.963 12.962,4 23.98,4 C34.998,4 43.96,12.963 43.96,23.981 C43.96,34.998 34.998,43.961 23.98,43.961 C12.962,43.961 4,34.998 4,23.981 Z M2,23.981 C2,36.101 11.86,45.961 23.98,45.961 C36.1,45.961 45.96,36.101 45.96,23.981 C45.96,11.86 36.1,2 23.98,2 C11.86,2 2,11.86 2,23.981 Z M17.218,35.219 L11.87,35.219 L18.207,21.943 L20.885,27.47 L17.218,35.219 Z M19.099,19.2 C18.932,18.856 18.583,18.637 18.2,18.637 L18.197,18.637 C17.812,18.638 17.462,18.859 17.297,19.206 L9.382,35.788 C9.234,36.098 9.255,36.462 9.439,36.752 C9.622,37.043 9.941,37.219 10.285,37.219 L17.851,37.219 C18.238,37.219 18.589,36.996 18.755,36.647 L22.898,27.893 C23.027,27.619 23.026,27.301 22.893,27.028 L19.099,19.2 Z M36.093,35.219 L30.648,35.219 L20.746,13.942 C20.582,13.59 20.228,13.364 19.839,13.364 L16.24,13.364 L16.244,9.245 L23.455,9.245 L33.31,30.52 C33.474,30.873 33.828,31.1 34.217,31.1 L36.093,31.1 L36.093,35.219 Z M34.856,29.1 L25.001,7.825 C24.836,7.472 24.483,7.245 24.093,7.245 L15.245,7.245 C14.693,7.245 14.246,7.692 14.245,8.244 L14.239,14.363 C14.239,14.629 14.344,14.883 14.532,15.071 C14.719,15.259 14.973,15.364 15.239,15.364 L19.202,15.364 L29.104,36.641 C29.268,36.993 29.622,37.219 30.01,37.219 L37.093,37.219 C37.646,37.219 38.093,36.772 38.093,36.219 L38.093,30.1 C38.093,29.547 37.646,29.1 37.093,29.1 L34.856,29.1 Z" id="svg8.Amazon-IOT-RESOURCES-Lambda-function_Resource-Icon_light-bg"/>
                  
            </g>
            
          </svg>
        </g>
      </g>
      <g>
        <g text-rendering="geometricPrecision" stroke-miterlimit="1.45" shape-rendering="geometricPrecision" font-family="sans-serif" transform="matrix(1,0,0,1,20,33)" stroke-linecap="butt">
          <text x="228.3174" xml:space="preserve" y="11.3633" stroke="none">Lambda</text>
        </g>
      </g>
    </g>
    <g onmouseout="HideTooltip(evt)" id="y.node.8" onmousemove="ShowTooltip(evt)">
      <g text-rendering="geometricPrecision" shape-rendering="geometricPrecision" transform="matrix(1.5,0,0,1.5,140,303)">
        <g>
          <svg opacity="1" writing-mode="lr-tb" stop-color="rgb(0, 0, 0)" shape-rendering="auto" glyph-orientation-horizontal="0deg" color-profile="auto" lighting-color="rgb(255, 255, 255)" contentStyleType="text/css" color="rgb(0, 0, 0)" font-weight="400" alignment-baseline="auto" font-style="normal" version="1.1" color-interpolation-filters="linearrgb" text-anchor="start" stroke-linecap="butt" color-interpolation="srgb" font-variant="normal" word-spacing="normal" fill-opacity="1" text-rendering="auto" clip-path="none" text-decoration="none" letter-spacing="normal" viewBox="0 0 40 40" glyph-orientation-vertical="auto" display="inline" font-size-adjust="none" overflow="hidden" fill="rgb(0, 0, 0)" font-stretch="normal" stroke-dasharray="none" stroke-miterlimit="4" stop-opacity="1" color-rendering="auto" font-size="12" pointer-events="visiblepainted" mask="none" direction="ltr" baseline-shift="baseline" enable-background="accumulate" fill-rule="nonzero" zoomAndPan="magnify" image-rendering="auto" stroke-dashoffset="0" width="40px" marker-end="none" clip="auto" cursor="auto" stroke="none" filter="none" visibility="visible" kerning="auto" stroke-width="1" font-family="&quot;Arial&quot;,&quot;Helvetica&quot;,sans-serif" contentScriptType="text/ecmascript" preserveAspectRatio="xMidYMid meet" flood-opacity="1" clip-rule="nonzero" src="none" height="40px" unicode-bidi="normal" stroke-linejoin="miter" stroke-opacity="1" flood-color="rgb(0, 0, 0)" dominant-baseline="auto" marker-start="none" marker-mid="none">
                
            <!-- Generator: Sketch 64 (93537) - https://sketch.com -->
                
            <title>Icon-Architecture/32/Arch_AWS-IoT-Core_32</title>
                
            <desc>Created with Sketch.</desc>
                
            <defs>
                      
              <linearGradient x1="0%" x2="100%" y1="100%" y2="0%" xlink:type="simple" xlink:actuate="onLoad" id="svg9.linearGradient-1" xlink:show="other">
                            
                <stop style="stop-color:#1B660F;" offset="0%"/>
                            
                <stop style="stop-color:#6CAE3E;" offset="100%"/>
                        
              </linearGradient>
                  
              <clipPath clipPathUnits="userSpaceOnUse" id="clipPath1">
                <path d="M0 0 L440 0 L440 791 L0 791 L0 0 Z"/>
              </clipPath>
              <clipPath clipPathUnits="userSpaceOnUse" id="clipPath2">
                <path d="M-20 -33 L420 -33 L420 758 L-20 758 L-20 -33 Z"/>
              </clipPath>
              <clipPath clipPathUnits="userSpaceOnUse" id="clipPath3">
                <path d="M0 0 L0 18 L175 18 L175 0 Z"/>
              </clipPath>
              <clipPath clipPathUnits="userSpaceOnUse" id="clipPath4">
                <path d="M0 0 L0 18 L150 18 L150 0 Z"/>
              </clipPath>
              <clipPath clipPathUnits="userSpaceOnUse" id="clipPath5">
                <path d="M0 0 L0 18 L201 18 L201 0 Z"/>
              </clipPath>
              <clipPath clipPathUnits="userSpaceOnUse" id="clipPath6">
                <path d="M0 0 L0 18 L194 18 L194 0 Z"/>
              </clipPath>
              <clipPath clipPathUnits="userSpaceOnUse" id="clipPath7">
                <path d="M0 0 L0 18 L242 18 L242 0 Z"/>
              </clipPath>
              <clipPath clipPathUnits="userSpaceOnUse" id="clipPath8">
                <path d="M0 0 L0 18 L182 18 L182 0 Z"/>
              </clipPath>
              <clipPath clipPathUnits="userSpaceOnUse" id="clipPath9">
                <path d="M0 0 L0 18 L259 18 L259 0 Z"/>
              </clipPath>
              <clipPath clipPathUnits="userSpaceOnUse" id="clipPath10">
                <path d="M0 0 L0 18 L214 18 L214 0 Z"/>
              </clipPath>
              <clipPath clipPathUnits="userSpaceOnUse" id="clipPath11">
                <path d="M0 0 L0 18 L123 18 L123 0 Z"/>
              </clipPath>
              <clipPath clipPathUnits="userSpaceOnUse" id="clipPath12">
                <path d="M0 0 L0 18 L163 18 L163 0 Z"/>
              </clipPath>
              <clipPath clipPathUnits="userSpaceOnUse" id="clipPath13">
                <path d="M0 0 L0 18 L307 18 L307 0 Z"/>
              </clipPath>
              <clipPath clipPathUnits="userSpaceOnUse" id="clipPath14">
                <path d="M0 0 L0 18 L153 18 L153 0 Z"/>
              </clipPath>
              <clipPath clipPathUnits="userSpaceOnUse" id="clipPath15">
                <path d="M0 0 L0 18 L417 18 L417 0 Z"/>
              </clipPath>
              <clipPath clipPathUnits="userSpaceOnUse" id="clipPath16">
                <path d="M0 0 L0 18 L321 18 L321 0 Z"/>
              </clipPath>
              <clipPath clipPathUnits="userSpaceOnUse" id="clipPath17">
                <path d="M0 0 L0 18 L216 18 L216 0 Z"/>
              </clipPath>
              <script type="text/ecmascript"><![CDATA[      var SVGDocument = null;
      var SVGRoot = null;
      var TrueCoords = null;
      var lastElement = null;
      var initialized = null;
      var tipGroup;
      function Init(evt)
      {
         SVGDocument = evt.target.ownerDocument;
         SVGRoot = SVGDocument.documentElement;
         TrueCoords = SVGRoot.createSVGPoint();
         initialized = evt;
      };
      function GetTrueCoords(evt)
      {
         var newScale = SVGRoot.currentScale;
         var translation = SVGRoot.currentTranslate;
         TrueCoords.x = (evt.clientX - translation.x)/newScale;
         TrueCoords.y = (evt.clientY - translation.y)/newScale;
      };
      function HideTooltip( evt )
      {
         if(initialized == null) {
           Init(evt);
         }
         if(tipGroup != null) {
           tipGroup.setAttributeNS(null, 'visibility', 'hidden');
         }
      };
      function ShowTooltip( evt )
      {
         if(initialized == null) {
           Init(evt);
         }
         GetTrueCoords( evt );
         var tipScale = 1/SVGRoot.currentScale;
         var targetElement = evt.currentTarget;
         if ( lastElement != targetElement )
         {
            var targetId = targetElement.getAttributeNS(null, 'id');
            var tipId = 'tooltip.' + targetId;
            tipGroup = SVGDocument.getElementById(tipId);
            var xPos = TrueCoords.x + (10 * tipScale);
            var yPos = TrueCoords.y + (10 * tipScale);
            tipGroup.setAttributeNS(null, 'transform', 'translate(' + xPos + ',' + yPos + ') scale(' + tipScale + ')');
            tipGroup.setAttributeNS(null, 'visibility', 'visible');
         }
      };
]]></script>
            </defs>
                
            <g style="fill:none; stroke-width:1; fill-rule:evenodd; stroke:none;" id="svg9.Icon-Architecture/32/Arch_AWS-IoT-Core_32">
                      
              <g style="fill:url(#svg9.linearGradient-1);" id="svg9.Icon-Architecture-BG/32/Internet-of-Things">
                            
                <rect x="0" width="40" height="40" id="svg9.Rectangle" y="0"/>
                        
              </g>
                      
              <path style="fill:#FFFFFF;" d="M30.0118379,24.3611289 C30.0118379,23.8020743 29.5631196,23.3465108 29.0102345,23.3465108 C28.4573494,23.3465108 28.0086311,23.8020743 28.0086311,24.3611289 C28.0086311,24.9201834 28.4573494,25.3757469 29.0102345,25.3757469 C29.5631196,25.3757469 30.0118379,24.9201834 30.0118379,24.3611289 M28.4112757,26.2868738 C27.7582303,26.0778625 27.251419,25.5441735 27.0781416,24.8684379 L25.5046226,24.8684379 L25.5046226,30.3128781 C27.0150406,29.5184322 28.1198091,28.05028 28.4112757,26.2868738 M24.5030193,30.7166961 L24.5030193,24.3611289 C24.5030193,24.0810943 24.7273784,23.8538198 25.0038209,23.8538198 L27.0781416,23.8538198 C27.1963308,23.3921687 27.4687669,22.9944384 27.8393601,22.7225208 C27.1893195,21.5100522 26.1065863,20.5745744 24.8255355,20.1159671 C24.5781395,20.6709631 24.0933635,21.0889858 23.5014159,21.2452369 L23.5014159,30.9074443 C23.8459674,30.8739619 24.1784998,30.8110556 24.5030193,30.7166961 M22.4998125,30.9074443 L22.4998125,21.2452369 C21.9078649,21.0889858 21.4230888,20.6709631 21.1756928,20.1159671 C19.8946421,20.5745744 18.8119088,21.5100522 18.1618682,22.7225208 C18.5324614,22.9944384 18.8048976,23.3921687 18.9230868,23.8538198 L20.9974074,23.8538198 C21.2738499,23.8538198 21.4982091,24.0810943 21.4982091,24.3611289 L21.4982091,30.7166961 C21.8227286,30.8110556 22.1552609,30.8739619 22.4998125,30.9074443 M20.4966057,30.3128781 L20.4966057,24.8684379 L18.9230868,24.8684379 C18.7498094,25.5441735 18.2429981,26.0778625 17.5899527,26.2868738 C17.8814192,28.05028 18.9861878,29.5184322 20.4966057,30.3128781 M16.9909938,25.3757469 C17.5438789,25.3757469 17.9925972,24.9201834 17.9925972,24.3611289 C17.9925972,23.8020743 17.5438789,23.3465108 16.9909938,23.3465108 C16.4381088,23.3465108 15.9893904,23.8020743 15.9893904,24.3611289 C15.9893904,24.9201834 16.4381088,25.3757469 16.9909938,25.3757469 M21.9990108,19.2880388 C21.9990108,19.8470933 22.4477291,20.3026568 23.0006142,20.3026568 C23.5534992,20.3026568 24.0022176,19.8470933 24.0022176,19.2880388 C24.0022176,18.7289843 23.5534992,18.2734208 23.0006142,18.2734208 C22.4477291,18.2734208 21.9990108,18.7289843 21.9990108,19.2880388 M31.0134413,24.3611289 C31.0134413,25.3331329 30.3353558,26.1448273 29.4349144,26.3426778 C29.0953708,28.6560069 27.556908,30.573635 25.5046226,31.4512795 L25.5046226,34 L24.5030193,34 L24.5030193,31.7830596 C24.1764965,31.8632145 23.8429626,31.9190185 23.5014159,31.9464131 L23.5014159,34 L22.4998125,34 L22.4998125,31.9464131 C22.1582657,31.9190185 21.8247318,31.8632145 21.4982091,31.7830596 L21.4982091,34 L20.4966057,34 L20.4966057,31.4512795 C18.4443203,30.573635 16.9058575,28.6560069 16.566314,26.3426778 C15.6658725,26.1448273 14.987787,25.3331329 14.987787,24.3611289 C14.987787,23.2420052 15.8862253,22.3318928 16.9909938,22.3318928 C17.0701205,22.3318928 17.1462423,22.3471121 17.2233658,22.355229 C18.0136309,20.8140243 19.3878307,19.6350381 21.0164379,19.1043929 C21.1085854,18.0725264 21.957945,17.2588028 23.0006142,17.2588028 C24.0432833,17.2588028 24.892643,18.0725264 24.9847905,19.1043929 C26.6133976,19.6350381 27.9875975,20.8140243 28.7778625,22.355229 C28.854986,22.3471121 28.9311078,22.3318928 29.0102345,22.3318928 C30.1150031,22.3318928 31.0134413,23.2420052 31.0134413,24.3611289 M33.999221,19.2160009 C34.0242611,20.6973432 33.4443327,22.1350569 32.4477373,23.0847394 L31.7606374,22.3460975 C32.5559105,21.5881778 33.0186513,20.4335425 32.9976176,19.2586149 C32.9976176,16.9878997 31.3519832,15.1524558 29.1684878,14.9464883 C28.8980549,14.9201082 28.6977343,14.6796438 28.7157631,14.4046823 L28.7267808,14.230168 C28.7267808,12.7660742 27.5579096,11.5749126 26.1216103,11.5749126 C25.4495345,11.5749126 24.8125147,11.8366841 24.3247339,12.3115253 C24.2015366,12.429221 24.0292609,12.4789373 23.8659995,12.4393672 C23.7017365,12.4018263 23.5675217,12.283116 23.5084271,12.1228064 C22.6029776,9.66540153 20.2662369,8.01461802 17.6961226,8.01461802 C14.2696374,8.01461802 11.4821752,10.8545338 11.4821752,14.3458344 C11.4821752,14.5660065 11.3429523,14.7628424 11.136622,14.8308218 C9.26162046,15.4527827 8.00160339,17.2192326 8.00160339,19.2271617 C8.00160339,21.778926 10.0388647,23.8538198 12.5418716,23.8538198 L12.5418716,24.8684379 C9.48597962,24.8684379 7,22.3379805 7,19.2271617 C7,16.9006426 8.3882223,14.8399534 10.4895862,13.9897035 C10.6728796,10.1027019 13.8359431,7 17.6961226,7 C20.4565416,7 22.9835869,8.63759348 24.1815046,11.1386269 C24.7564249,10.7622036 25.4264976,10.5602946 26.1216103,10.5602946 C28.0336712,10.5602946 29.6041853,12.0832363 29.7213729,13.9998497 C32.1903253,14.4543986 33.999221,16.6195934 33.999221,19.2160009" id="svg9.AWS-IoT-Core_Icon_32_Squid"/>
                  
            </g>
            
          </svg>
        </g>
      </g>
      <g>
        <g text-rendering="geometricPrecision" stroke-miterlimit="1.45" shape-rendering="geometricPrecision" font-family="sans-serif" transform="matrix(1,0,0,1,20,33)" stroke-linecap="butt">
          <text x="55.6283" xml:space="preserve" y="304.7139" stroke="none">IoT Core</text>
        </g>
      </g>
    </g>
    <g onmouseout="HideTooltip(evt)" id="y.node.9" onmousemove="ShowTooltip(evt)">
      <g text-rendering="geometricPrecision" shape-rendering="geometricPrecision" transform="matrix(1.3636,0,0,1.3636,19.3204,668.8856)">
        <g>
          <svg opacity="1" writing-mode="lr-tb" stop-color="rgb(0, 0, 0)" shape-rendering="auto" glyph-orientation-horizontal="0deg" color-profile="auto" lighting-color="rgb(255, 255, 255)" contentStyleType="text/css" color="rgb(0, 0, 0)" font-weight="400" alignment-baseline="auto" font-style="normal" version="1.1" color-interpolation-filters="linearrgb" text-anchor="start" stroke-linecap="butt" color-interpolation="srgb" font-variant="normal" word-spacing="normal" fill-opacity="1" text-rendering="auto" clip-path="none" text-decoration="none" letter-spacing="normal" viewBox="0 0 48 48" glyph-orientation-vertical="auto" display="inline" font-size-adjust="none" overflow="hidden" fill="rgb(0, 0, 0)" font-stretch="normal" stroke-dasharray="none" stroke-miterlimit="4" stop-opacity="1" color-rendering="auto" font-size="12" pointer-events="visiblepainted" mask="none" direction="ltr" baseline-shift="baseline" enable-background="accumulate" fill-rule="nonzero" zoomAndPan="magnify" image-rendering="auto" stroke-dashoffset="0" width="48px" marker-end="none" clip="auto" cursor="auto" stroke="none" filter="none" visibility="visible" kerning="auto" stroke-width="1" font-family="&quot;Arial&quot;,&quot;Helvetica&quot;,sans-serif" contentScriptType="text/ecmascript" preserveAspectRatio="xMidYMid meet" flood-opacity="1" clip-rule="nonzero" src="none" height="48px" unicode-bidi="normal" stroke-linejoin="miter" stroke-opacity="1" flood-color="rgb(0, 0, 0)" dominant-baseline="auto" marker-start="none" marker-mid="none">
                
            <title>Icon-Resource/IoT/Res_Amazon-IoT_Sailboat _48_Light</title>
                
            <g style="fill:none; stroke-width:1; fill-rule:evenodd; stroke:none;" id="svg10.Icon-Resource/IoT/Res_Amazon-IoT_Sailboat-_48">
                      
              <path style="fill:#3F8624;" d="M21.841,26.881 C20.512,25.552 18.728,24.82 16.817,24.82 L16.817,26.82 C18.194,26.82 19.476,27.344 20.427,28.295 C21.378,29.246 21.902,30.528 21.902,31.906 L23.902,31.906 C23.902,29.994 23.17,28.21 21.841,26.881 L21.841,26.881 Z M16.791,16.271 L16.783,18.271 C24.304,18.298 30.422,24.415 30.422,31.906 L32.422,31.906 C32.422,23.316 25.41,16.302 16.791,16.271 L16.791,16.271 Z M16.787,7.751 L16.787,9.751 C29.003,9.751 38.942,19.69 38.942,31.906 L40.942,31.906 C40.942,18.587 30.106,7.751 16.787,7.751 L16.787,7.751 Z M17,42 L31,42 L31,40 L17,40 L17,42 Z M6,32 L8,32 L8,16 L6,16 L6,32 Z M7,38 C5.346,38 4,39.345 4,41 C4,42.654 5.346,44 7,44 C8.654,44 10,42.654 10,41 C10,39.345 8.654,38 7,38 L7,38 Z M7,46 C4.243,46 2,43.756 2,41 C2,38.243 4.243,36 7,36 C9.757,36 12,38.243 12,41 C12,43.756 9.757,46 7,46 L7,46 Z M7,4 C5.346,4 4,5.345 4,7 C4,8.654 5.346,10 7,10 C8.654,10 10,8.654 10,7 C10,5.345 8.654,4 7,4 L7,4 Z M7,12 C4.243,12 2,9.756 2,7 C2,4.243 4.243,2 7,2 C9.757,2 12,4.243 12,7 C12,9.756 9.757,12 7,12 L7,12 Z M41,38 C39.346,38 38,39.345 38,41 C38,42.654 39.346,44 41,44 C42.654,44 44,42.654 44,41 C44,39.345 42.654,38 41,38 L41,38 Z M41,46 C38.243,46 36,43.756 36,41 C36,38.243 38.243,36 41,36 C43.757,36 46,38.243 46,41 C46,43.756 43.757,46 41,46 L41,46 Z" id="svg10.Fill-1"/>
                  
            </g>
            
          </svg>
        </g>
      </g>
      <g>
        <g text-rendering="geometricPrecision" stroke-miterlimit="1.45" shape-rendering="geometricPrecision" font-family="sans-serif" transform="matrix(1,0,0,1,20,33)" stroke-linecap="butt">
          <text x="9.703" xml:space="preserve" y="716.6774" stroke="none">Actuator</text>
        </g>
      </g>
    </g>
    <g onmouseout="HideTooltip(evt)" id="y.node.10" onmousemove="ShowTooltip(evt)">
      <g text-rendering="geometricPrecision" shape-rendering="geometricPrecision" transform="matrix(1.3699,0,0,1.3699,362.2603,50.2602)">
        <g>
          <svg opacity="1" writing-mode="lr-tb" stop-color="rgb(0, 0, 0)" shape-rendering="auto" glyph-orientation-horizontal="0deg" color-profile="auto" lighting-color="rgb(255, 255, 255)" contentStyleType="text/css" color="rgb(0, 0, 0)" font-weight="400" alignment-baseline="auto" font-style="normal" version="1.1" color-interpolation-filters="linearrgb" text-anchor="start" stroke-linecap="butt" color-interpolation="srgb" font-variant="normal" word-spacing="normal" fill-opacity="1" text-rendering="auto" clip-path="none" text-decoration="none" letter-spacing="normal" viewBox="0 0 48 48" glyph-orientation-vertical="auto" display="inline" font-size-adjust="none" overflow="hidden" fill="rgb(0, 0, 0)" font-stretch="normal" stroke-dasharray="none" stroke-miterlimit="4" stop-opacity="1" color-rendering="auto" font-size="12" pointer-events="visiblepainted" mask="none" direction="ltr" baseline-shift="baseline" enable-background="accumulate" fill-rule="nonzero" zoomAndPan="magnify" image-rendering="auto" stroke-dashoffset="0" width="48px" marker-end="none" clip="auto" cursor="auto" stroke="none" filter="none" visibility="visible" kerning="auto" stroke-width="1" font-family="&quot;Arial&quot;,&quot;Helvetica&quot;,sans-serif" contentScriptType="text/ecmascript" preserveAspectRatio="xMidYMid meet" flood-opacity="1" clip-rule="nonzero" src="none" height="48px" unicode-bidi="normal" stroke-linejoin="miter" stroke-opacity="1" flood-color="rgb(0, 0, 0)" dominant-baseline="auto" marker-start="none" marker-mid="none">
                
            <title>Icon-Resource/Database/Res_Amazon-DynamoDB_Global-secondary-index_48_Light</title>
                
            <g style="fill:none; stroke-width:1; fill-rule:evenodd; stroke:none;" id="svg11.Icon-Resource/Database/Res_Amazon-DynamoDB_Global-secondary-index_48">
                      
              <path style="fill:#2E27AD;" d="M22.901,11.836 L45.8,11.836 L45.8,2 L22.901,2 L22.901,11.836 Z M24.9,9.836 L43.799,9.836 L43.799,3.999 L24.9,3.999 L24.9,9.836 Z M12.45,11.836 L21.417,11.836 L21.417,2 L12.45,2 L12.45,11.836 Z M14.451,9.836 L19.417,9.836 L19.417,3.999 L14.451,3.999 L14.451,9.836 Z M2,11.836 L10.967,11.836 L10.967,2 L2,2 L2,11.836 Z M4,9.836 L8.967,9.836 L8.967,3.999 L4,3.999 L4,9.836 Z M22.901,23.158 L45.8,23.158 L45.8,13.32 L22.901,13.32 L22.901,23.158 Z M24.9,21.157 L43.799,21.157 L43.799,15.32 L24.9,15.32 L24.9,21.157 Z M12.45,23.158 L21.417,23.158 L21.417,13.32 L12.45,13.32 L12.45,23.158 Z M14.451,21.157 L19.417,21.157 L19.417,15.32 L14.451,15.32 L14.451,21.157 Z M2,23.158 L10.967,23.158 L10.967,13.32 L2,13.32 L2,23.158 Z M4,21.157 L8.967,21.157 L8.967,15.32 L4,15.32 L4,21.157 Z M22.901,34.478 L45.8,34.478 L45.8,24.641 L22.901,24.641 L22.901,34.478 Z M24.9,32.478 L43.799,32.478 L43.799,26.641 L24.9,26.641 L24.9,32.478 Z M12.45,34.478 L21.417,34.478 L21.417,24.641 L12.45,24.641 L12.45,34.478 Z M14.451,32.478 L19.417,32.478 L19.417,26.641 L14.451,26.641 L14.451,32.478 Z M2,34.478 L10.967,34.478 L10.967,24.641 L2,24.641 L2,34.478 Z M4,32.478 L8.967,32.478 L8.967,26.641 L4,26.641 L4,32.478 Z M22.901,45.799 L45.8,45.799 L45.8,35.961 L22.901,35.961 L22.901,45.799 Z M24.9,43.799 L43.799,43.799 L43.799,37.961 L24.9,37.961 L24.9,43.799 Z M12.45,45.799 L21.417,45.799 L21.417,35.961 L12.45,35.961 L12.45,45.799 Z M14.451,43.799 L19.417,43.799 L19.417,37.961 L14.451,37.961 L14.451,43.799 Z M2,45.799 L10.967,45.799 L10.967,35.961 L2,35.961 L2,45.799 Z M4,43.799 L8.967,43.799 L8.967,37.961 L4,37.961 L4,43.799 Z" id="svg11.Amazon-DATABASE_Amazon-DynamoDB_Global-Secondary-Index_Resource-Icon_light-bg"/>
                  
            </g>
            
          </svg>
        </g>
      </g>
      <g>
        <g text-rendering="geometricPrecision" stroke-miterlimit="1.45" shape-rendering="geometricPrecision" font-family="sans-serif" transform="matrix(1,0,0,1,20,33)" stroke-linecap="butt">
          <text x="358.6523" xml:space="preserve" y="-3.3379" stroke="none">Metrics</text>
          <text x="356.9707" xml:space="preserve" y="11.3633" stroke="none">Storage</text>
        </g>
      </g>
    </g>
    <g onmouseout="HideTooltip(evt)" id="y.node.11" onmousemove="ShowTooltip(evt)">
      <g text-rendering="geometricPrecision" shape-rendering="geometricPrecision" transform="matrix(1.3652,0,0,1.374,237.2688,175.1304)">
        <g>
          <svg opacity="1" writing-mode="lr-tb" stop-color="rgb(0, 0, 0)" shape-rendering="auto" glyph-orientation-horizontal="0deg" color-profile="auto" lighting-color="rgb(255, 255, 255)" contentStyleType="text/css" color="rgb(0, 0, 0)" font-weight="400" alignment-baseline="auto" font-style="normal" version="1.1" color-interpolation-filters="linearrgb" text-anchor="start" stroke-linecap="butt" color-interpolation="srgb" font-variant="normal" word-spacing="normal" fill-opacity="1" text-rendering="auto" clip-path="none" text-decoration="none" letter-spacing="normal" viewBox="0 0 48 48" glyph-orientation-vertical="auto" display="inline" font-size-adjust="none" overflow="hidden" fill="rgb(0, 0, 0)" font-stretch="normal" stroke-dasharray="none" stroke-miterlimit="4" stop-opacity="1" color-rendering="auto" font-size="12" pointer-events="visiblepainted" mask="none" direction="ltr" baseline-shift="baseline" enable-background="accumulate" fill-rule="nonzero" zoomAndPan="magnify" image-rendering="auto" stroke-dashoffset="0" width="48px" marker-end="none" clip="auto" cursor="auto" stroke="none" filter="none" visibility="visible" kerning="auto" stroke-width="1" font-family="&quot;Arial&quot;,&quot;Helvetica&quot;,sans-serif" contentScriptType="text/ecmascript" preserveAspectRatio="xMidYMid meet" flood-opacity="1" clip-rule="nonzero" src="none" height="48px" unicode-bidi="normal" stroke-linejoin="miter" stroke-opacity="1" flood-color="rgb(0, 0, 0)" dominant-baseline="auto" marker-start="none" marker-mid="none">
                
            <title>Icon-Resource/IoT/Res_Policy_48_Light</title>
                
            <g style="fill:none; stroke-width:1; fill-rule:evenodd; stroke:none;" id="svg12.Icon-Resource/IoT/Res_Policy_48">
                      
              <path style="fill:#3F8624;" d="M28.5196,31.7816 C28.5196,32.4576 29.0666,33.0046 29.7426,33.0046 C30.4196,33.0046 30.9666,32.4576 30.9666,31.7816 C30.9666,31.1056 30.4196,30.5576 29.7426,30.5576 C29.0666,30.5576 28.5196,31.1056 28.5196,31.7816 Z M41.3966,31.4706 L40.7286,31.4706 C40.4896,31.4706 40.2586,31.3846 40.0766,31.2286 L39.6696,30.8776 L39.2626,31.2286 C39.0806,31.3846 38.8486,31.4706 38.6096,31.4706 L37.9026,31.4706 C37.6636,31.4706 37.4316,31.3846 37.2506,31.2286 L36.8436,30.8776 L36.4346,31.2286 C36.2536,31.3846 36.0216,31.4706 35.7826,31.4706 L34.5286,31.4706 C34.1046,31.4706 33.7266,31.2036 33.5856,30.8036 C33.1806,29.6526 31.9766,28.8486 30.6606,28.8486 C28.9716,28.8486 27.5966,30.1636 27.5966,31.7816 C27.5966,33.3986 28.9716,34.7146 30.6606,34.7146 C31.9766,34.7146 33.1806,33.9116 33.5856,32.7596 C33.7266,32.3606 34.1046,32.0926 34.5286,32.0926 L41.6646,32.0926 L41.8376,31.8786 L41.3966,31.4706 Z M42.9196,33.7216 C42.7296,33.9556 42.4436,34.0926 42.1416,34.0926 L35.1736,34.0926 C34.3136,35.6656 32.5536,36.7146 30.6606,36.7146 C27.8686,36.7146 25.5966,34.5016 25.5966,31.7816 C25.5966,29.0616 27.8686,26.8486 30.6606,26.8486 C32.5536,26.8486 34.3136,27.8976 35.1736,29.4706 L35.4116,29.4706 L36.1906,28.8006 C36.5656,28.4786 37.1206,28.4786 37.4956,28.8006 L38.2566,29.4546 L39.0166,28.8006 C39.3916,28.4786 39.9466,28.4786 40.3216,28.8006 L41.0996,29.4706 L41.7896,29.4706 C42.0416,29.4706 42.2846,29.5666 42.4696,29.7376 L43.8826,31.0476 C43.9066,31.0706 43.9166,31.1006 43.9386,31.1246 C43.8136,26.0006 39.6156,21.8696 34.4626,21.8696 C29.2306,21.8696 24.9746,26.1246 24.9746,31.3566 C24.9746,36.5876 29.2306,40.8446 34.4626,40.8446 C39.2886,40.8446 43.2766,37.2186 43.8666,32.5496 L42.9196,33.7216 Z M34.4626,42.8446 C28.1286,42.8446 22.9746,37.6916 22.9746,31.3566 C22.9746,25.0226 28.1286,19.8696 34.4626,19.8696 C40.7976,19.8696 45.9506,25.0226 45.9506,31.3566 C45.9506,37.6916 40.7976,42.8446 34.4626,42.8446 Z M8.6856,35.5306 C8.8746,35.7286 9.1366,35.8406 9.4096,35.8406 C9.6826,35.8406 9.9446,35.7286 10.1346,35.5306 L15.9606,29.4116 L14.5116,28.0336 L9.4096,33.3906 L7.2196,31.0916 L5.7716,32.4706 L8.6856,35.5306 Z M8.0766,25.9336 L10.4286,23.5816 L12.7806,25.9336 L14.1946,24.5196 L11.8426,22.1676 L14.1946,19.8166 L12.7806,18.4026 L10.4286,20.7536 L8.0766,18.4026 L6.6626,19.8166 L9.0136,22.1676 L6.6626,24.5196 L8.0766,25.9336 Z M8.0766,16.3206 L10.4286,13.9686 L12.7806,16.3206 L14.1946,14.9066 L11.8426,12.5546 L14.1946,10.2026 L12.7806,8.7876 L10.4286,11.1406 L8.0766,8.7876 L6.6626,10.2026 L9.0136,12.5546 L6.6626,14.9066 L8.0766,16.3206 Z M22.8656,36.4616 L22.8656,38.4616 L4.1536,38.4616 C2.9666,38.4616 2.0006,37.4956 2.0006,36.3086 L2.0006,7.1536 C2.0006,5.9656 2.9666,4.9996 4.1536,4.9996 L25.4436,4.9996 C26.6316,4.9996 27.5966,5.9656 27.5966,7.1536 L27.5966,20.8666 L25.5966,20.8666 L25.5966,7.1536 C25.5966,7.0676 25.5296,6.9996 25.4436,6.9996 L4.1536,6.9996 C4.0676,6.9996 4.0006,7.0676 4.0006,7.1536 L4.0006,36.3086 C4.0006,36.3946 4.0676,36.4616 4.1536,36.4616 L22.8656,36.4616 Z" id="svg12.Amazon-IOT-RESOURCES-IoT-Policy_Resource-Icon_light-bg"/>
                  
            </g>
            
          </svg>
        </g>
      </g>
      <g>
        <g text-rendering="geometricPrecision" stroke-miterlimit="1.45" shape-rendering="geometricPrecision" font-family="sans-serif" transform="matrix(1,0,0,1,20,33)" stroke-linecap="butt">
          <text x="226" xml:space="preserve" y="227.0918" stroke="none">Security</text>
          <text x="226.999" xml:space="preserve" y="241.793" stroke="none">Policies</text>
        </g>
      </g>
    </g>
    <g onmouseout="HideTooltip(evt)" id="y.node.12" onmousemove="ShowTooltip(evt)">
      <g text-rendering="geometricPrecision" shape-rendering="geometricPrecision" transform="matrix(0.8819,0,0,0.8975,302.8207,319.9314)">
        <g>
          <svg opacity="1" writing-mode="lr-tb" stop-color="rgb(0, 0, 0)" shape-rendering="auto" glyph-orientation-horizontal="0deg" color-profile="auto" lighting-color="rgb(255, 255, 255)" contentStyleType="text/css" color="rgb(0, 0, 0)" font-weight="400" alignment-baseline="auto" font-style="normal" version="1.1" color-interpolation-filters="linearrgb" text-anchor="start" stroke-linecap="butt" color-interpolation="srgb" font-variant="normal" word-spacing="normal" fill-opacity="1" text-rendering="auto" clip-path="none" text-decoration="none" letter-spacing="normal" viewBox="0 0 48 48" glyph-orientation-vertical="auto" display="inline" font-size-adjust="none" overflow="hidden" fill="rgb(0, 0, 0)" font-stretch="normal" stroke-dasharray="none" stroke-miterlimit="4" stop-opacity="1" color-rendering="auto" font-size="12" pointer-events="visiblepainted" mask="none" direction="ltr" baseline-shift="baseline" enable-background="accumulate" fill-rule="nonzero" zoomAndPan="magnify" image-rendering="auto" stroke-dashoffset="0" width="48px" marker-end="none" clip="auto" cursor="auto" stroke="none" filter="none" visibility="visible" kerning="auto" stroke-width="1" font-family="&quot;Arial&quot;,&quot;Helvetica&quot;,sans-serif" contentScriptType="text/ecmascript" preserveAspectRatio="xMidYMid meet" flood-opacity="1" clip-rule="nonzero" src="none" height="48px" unicode-bidi="normal" stroke-linejoin="miter" stroke-opacity="1" flood-color="rgb(0, 0, 0)" dominant-baseline="auto" marker-start="none" marker-mid="none">
                
            <title>Icon-Resource/Security-Identity-and-Compliance/Res_AWS-Identity-Access-Management_Long-Term-Security-Credential_48_Light</title>
                
            <g style="fill:none; stroke-width:1; fill-rule:evenodd; stroke:none;" id="svg13.Icon-Resource/Security-Identity-and-Compliance/Res_AWS-Identity-Access-Management_Long-Term-Security-Credential_48">
                      
              <path style="fill:#BF0816;" d="M43.9593,37.7715 L45.9593,37.7715 L45.9593,42.1415 C45.9593,42.6945 45.5123,43.1415 44.9593,43.1415 L3.0003,43.1415 C2.4473,43.1415 2.0003,42.6945 2.0003,42.1415 L2.0003,37.7715 L4.0003,37.7715 L4.0003,41.1415 L43.9593,41.1415 L43.9593,37.7715 Z M39.3383,11.6215 C40.1433,11.6215 40.7973,12.2765 40.7973,13.0815 C40.7973,13.8855 40.1433,14.5405 39.3383,14.5405 C38.5333,14.5405 37.8783,13.8855 37.8783,13.0815 C37.8783,12.2765 38.5333,11.6215 39.3383,11.6215 L39.3383,11.6215 Z M39.3383,16.5405 C41.2453,16.5405 42.7973,14.9885 42.7973,13.0815 C42.7973,11.1725 41.2453,9.6215 39.3383,9.6215 C37.4303,9.6215 35.8783,11.1725 35.8783,13.0815 C35.8783,14.9885 37.4303,16.5405 39.3383,16.5405 L39.3383,16.5405 Z M14.5003,11.6215 L29.1843,11.6215 C29.6193,11.6215 30.0053,11.3385 30.1373,10.9225 C31.0703,7.9785 33.7793,6.0005 36.8783,6.0005 C40.7823,6.0005 43.9593,9.1765 43.9593,13.0815 C43.9593,16.9855 40.7823,20.1625 36.8783,20.1625 C33.7793,20.1625 31.0703,18.1835 30.1373,15.2385 C30.0053,14.8225 29.6193,14.5405 29.1843,14.5405 L26.6883,14.5405 C26.4233,14.5405 26.1693,14.6455 25.9813,14.8335 L24.5803,16.2345 L23.1803,14.8335 C22.9923,14.6455 22.7383,14.5405 22.4733,14.5405 L21.0663,14.5405 C20.8013,14.5405 20.5473,14.6455 20.3593,14.8335 L18.9593,16.2345 L17.5583,14.8335 C17.3703,14.6455 17.1163,14.5405 16.8513,14.5405 L15.1183,14.5405 L13.3353,12.9805 L14.5003,11.6215 Z M14.0843,16.2925 C14.2663,16.4525 14.5003,16.5405 14.7423,16.5405 L16.4373,16.5405 L18.2523,18.3555 C18.6273,18.7305 19.2913,18.7305 19.6663,18.3555 L21.4803,16.5405 L22.0593,16.5405 L23.8733,18.3555 C24.0613,18.5425 24.3143,18.6485 24.5803,18.6485 C24.8463,18.6485 25.1003,18.5425 25.2873,18.3555 L27.1033,16.5405 L28.4823,16.5405 C29.8673,19.9315 33.1533,22.1625 36.8783,22.1625 C41.8853,22.1625 45.9593,18.0875 45.9593,13.0815 C45.9593,8.0745 41.8853,4.0005 36.8783,4.0005 C33.1533,4.0005 29.8673,6.2305 28.4823,9.6215 L14.0403,9.6215 C13.7483,9.6215 13.4713,9.7495 13.2813,9.9705 L11.1723,12.4305 C10.8153,12.8465 10.8603,13.4725 11.2733,13.8345 L14.0843,16.2925 Z M8.6223,27.7845 C9.4273,27.7845 10.0813,28.4385 10.0813,29.2435 C10.0813,30.0475 9.4273,30.7035 8.6223,30.7035 C7.8173,30.7035 7.1623,30.0475 7.1623,29.2435 C7.1623,28.4385 7.8173,27.7845 8.6223,27.7845 L8.6223,27.7845 Z M8.6223,32.7035 C10.5293,32.7035 12.0813,31.1515 12.0813,29.2435 C12.0813,27.3355 10.5293,25.7845 8.6223,25.7845 C6.7143,25.7845 5.1623,27.3355 5.1623,29.2435 C5.1623,31.1515 6.7143,32.7035 8.6223,32.7035 L8.6223,32.7035 Z M11.0813,22.1625 C14.1813,22.1625 16.8903,24.1405 17.8233,27.0855 C17.9553,27.5015 18.3413,27.7845 18.7763,27.7845 L21.2713,27.7845 C21.5363,27.7845 21.7903,27.6785 21.9783,27.4915 L23.3793,26.0895 L24.7803,27.4915 C24.9683,27.6785 25.2223,27.7845 25.4873,27.7845 L26.8933,27.7845 C27.1583,27.7845 27.4123,27.6785 27.6003,27.4915 L29.0013,26.0895 L30.4013,27.4915 C30.5893,27.6785 30.8433,27.7845 31.1083,27.7845 L32.8413,27.7845 L34.6243,29.3435 L33.4603,30.7035 L18.7763,30.7035 C18.3413,30.7035 17.9553,30.9855 17.8233,31.4015 C16.8903,34.3465 14.1813,36.3255 11.0813,36.3255 C7.1773,36.3255 4.0003,33.1485 4.0003,29.2435 C4.0003,25.3385 7.1773,22.1625 11.0813,22.1625 L11.0813,22.1625 Z M11.0813,38.3255 C14.8073,38.3255 18.0933,36.0945 19.4783,32.7035 L33.9203,32.7035 C34.2123,32.7035 34.4893,32.5755 34.6803,32.3535 L36.7873,29.8935 C37.1443,29.4775 37.0993,28.8515 36.6863,28.4905 L33.8753,26.0315 C33.6933,25.8725 33.4593,25.7845 33.2173,25.7845 L31.5223,25.7845 L29.7083,23.9685 C29.5213,23.7815 29.2673,23.6755 29.0013,23.6755 C28.7353,23.6755 28.4813,23.7815 28.2943,23.9685 L26.4793,25.7845 L25.9013,25.7845 L24.0863,23.9685 C23.6953,23.5785 23.0633,23.5785 22.6723,23.9685 L20.8563,25.7845 L19.4783,25.7845 C18.0933,22.3925 14.8073,20.1625 11.0813,20.1625 C6.0743,20.1625 2.0003,24.2365 2.0003,29.2435 C2.0003,34.2505 6.0743,38.3255 11.0813,38.3255 L11.0813,38.3255 Z" id="svg13.AWS-Identity-and-Access-Management_Long-term-security-credential_Resource-Icon_light-bg"/>
                  
            </g>
            
          </svg>
        </g>
      </g>
      <g/>
    </g>
    <g onmouseout="HideTooltip(evt)" id="y.node.13" onmousemove="ShowTooltip(evt)">
      <g text-rendering="geometricPrecision" shape-rendering="geometricPrecision" transform="matrix(1.3903,0,0,1.3639,237.1581,300.2722)">
        <g>
          <svg opacity="1" writing-mode="lr-tb" stop-color="rgb(0, 0, 0)" shape-rendering="auto" glyph-orientation-horizontal="0deg" color-profile="auto" lighting-color="rgb(255, 255, 255)" contentStyleType="text/css" color="rgb(0, 0, 0)" font-weight="400" alignment-baseline="auto" font-style="normal" version="1.1" color-interpolation-filters="linearrgb" text-anchor="start" stroke-linecap="butt" color-interpolation="srgb" font-variant="normal" word-spacing="normal" fill-opacity="1" text-rendering="auto" clip-path="none" text-decoration="none" letter-spacing="normal" viewBox="0 0 48 48" glyph-orientation-vertical="auto" display="inline" font-size-adjust="none" overflow="hidden" fill="rgb(0, 0, 0)" font-stretch="normal" stroke-dasharray="none" stroke-miterlimit="4" stop-opacity="1" color-rendering="auto" font-size="12" pointer-events="visiblepainted" mask="none" direction="ltr" baseline-shift="baseline" enable-background="accumulate" fill-rule="nonzero" zoomAndPan="magnify" image-rendering="auto" stroke-dashoffset="0" width="48px" marker-end="none" clip="auto" cursor="auto" stroke="none" filter="none" visibility="visible" kerning="auto" stroke-width="1" font-family="&quot;Arial&quot;,&quot;Helvetica&quot;,sans-serif" contentScriptType="text/ecmascript" preserveAspectRatio="xMidYMid meet" flood-opacity="1" clip-rule="nonzero" src="none" height="48px" unicode-bidi="normal" stroke-linejoin="miter" stroke-opacity="1" flood-color="rgb(0, 0, 0)" dominant-baseline="auto" marker-start="none" marker-mid="none">
                
            <title>Icon-Resource/Security-Identity-and-Compliance/Res_AWS-Identity-Access-Management_Permissions_48_Light</title>
                
            <g style="fill:none; stroke-width:1; fill-rule:evenodd; stroke:none;" id="svg14.Icon-Resource/Security-Identity-and-Compliance/Res_AWS-Identity-Access-Management_Permissions_48">
                      
              <path style="fill:#BF0816;" d="M20.2899,18.04 L21.7039,19.454 L14.7059,26.452 C14.5109,26.647 14.2549,26.745 13.9989,26.745 C13.7429,26.745 13.4869,26.647 13.2919,26.452 L9.7919,22.953 L11.2059,21.539 L13.9989,24.331 L20.2899,18.04 Z M20.2899,6.667 L21.7039,8.081 L14.7059,15.079 C14.5109,15.274 14.2549,15.372 13.9989,15.372 C13.7429,15.372 13.4869,15.274 13.2919,15.079 L9.7919,11.58 L11.2059,10.166 L13.9989,12.958 L20.2899,6.667 Z M19.9549,32.576 L16.7259,35.806 L19.9549,39.035 L18.5409,40.449 L15.3109,37.22 L12.0809,40.449 L10.6669,39.035 L13.8969,35.806 L10.6669,32.576 L12.0809,31.162 L15.3109,34.392 L18.5409,31.162 L19.9549,32.576 Z M39.2429,43.186 C39.2429,43.63 38.8819,43.991 38.4379,43.991 L8.8059,43.991 C8.3609,43.991 7.9999,43.63 7.9999,43.186 L7.9999,4.806 C7.9999,4.361 8.3609,4 8.8059,4 L38.4379,4 C38.8819,4 39.2429,4.361 39.2429,4.806 L39.2429,43.186 Z M38.4379,2 L8.8059,2 C7.2589,2 5.9999,3.259 5.9999,4.806 L5.9999,43.186 C5.9999,44.732 7.2589,45.991 8.8059,45.991 L38.4379,45.991 C39.9849,45.991 41.2429,44.732 41.2429,43.186 L41.2429,4.806 C41.2429,3.259 39.9849,2 38.4379,2 L38.4379,2 Z" id="svg14.AWS-Identity-and-Access-Management_Permissions_Resource-Icon_light-bg"/>
                  
            </g>
            
          </svg>
        </g>
      </g>
      <g>
        <g text-rendering="geometricPrecision" stroke-miterlimit="1.45" shape-rendering="geometricPrecision" font-family="sans-serif" transform="matrix(1,0,0,1,20,33)" stroke-linecap="butt">
          <text x="230.6553" xml:space="preserve" y="348.0645" stroke="none">Identity</text>
          <text x="230.6611" xml:space="preserve" y="362.7656" stroke="none">Access</text>
        </g>
      </g>
    </g>
    <g onmouseout="HideTooltip(evt)" id="y.node.14" onmousemove="ShowTooltip(evt)">
      <g text-rendering="geometricPrecision" shape-rendering="geometricPrecision" transform="matrix(1.3686,0,0,1.3858,137.0032,52.436)">
        <g>
          <svg opacity="1" writing-mode="lr-tb" stop-color="rgb(0, 0, 0)" shape-rendering="auto" glyph-orientation-horizontal="0deg" color-profile="auto" lighting-color="rgb(255, 255, 255)" contentStyleType="text/css" color="rgb(0, 0, 0)" font-weight="400" alignment-baseline="auto" font-style="normal" version="1.1" color-interpolation-filters="linearrgb" text-anchor="start" stroke-linecap="butt" color-interpolation="srgb" font-variant="normal" word-spacing="normal" fill-opacity="1" text-rendering="auto" clip-path="none" text-decoration="none" letter-spacing="normal" viewBox="0 0 48 48" glyph-orientation-vertical="auto" display="inline" font-size-adjust="none" overflow="hidden" fill="rgb(0, 0, 0)" font-stretch="normal" stroke-dasharray="none" stroke-miterlimit="4" stop-opacity="1" color-rendering="auto" font-size="12" pointer-events="visiblepainted" mask="none" direction="ltr" baseline-shift="baseline" enable-background="accumulate" fill-rule="nonzero" zoomAndPan="magnify" image-rendering="auto" stroke-dashoffset="0" width="48px" marker-end="none" clip="auto" cursor="auto" stroke="none" filter="none" visibility="visible" kerning="auto" stroke-width="1" font-family="&quot;Arial&quot;,&quot;Helvetica&quot;,sans-serif" contentScriptType="text/ecmascript" preserveAspectRatio="xMidYMid meet" flood-opacity="1" clip-rule="nonzero" src="none" height="48px" unicode-bidi="normal" stroke-linejoin="miter" stroke-opacity="1" flood-color="rgb(0, 0, 0)" dominant-baseline="auto" marker-start="none" marker-mid="none">
                
            <title>Icon-Resource/Application-Integration/Res_Amazon-EventBridge-Event_48_Light</title>
                
            <g style="fill:none; stroke-width:1; fill-rule:evenodd; stroke:none;" id="svg15.Icon-Resource/Application-Integration/Res_Amazon-EventBridge-Event_48">
                      
              <path style="fill:#B0084D;" d="M30.58,10.58 L28.74,9.795 L31.538,3.237 L33.378,4.022 L30.58,10.58 Z M36.295,15.605 L35.094,14.006 L40.831,9.698 L42.032,11.298 L36.295,15.605 Z M38.447,20.802 L45.587,19.898 L45.839,21.883 L38.699,22.786 L38.447,20.802 Z M37.907,28.354 L44.538,31.098 L43.773,32.945 L37.143,30.202 L37.907,28.354 Z M33.625,34.644 L37.968,40.3 L36.382,41.518 L32.039,35.863 L33.625,34.644 Z M26.743,37.995 L27.635,45.046 L25.65,45.296 L24.759,38.245 L26.743,37.995 Z M17.259,36.716 L19.099,37.501 L16.301,44.059 L14.461,43.274 L17.259,36.716 Z M11.544,31.69 L12.745,33.29 L7.008,37.598 L5.807,35.998 L11.544,31.69 Z M9.392,26.494 L2.252,27.398 L2,25.414 L9.14,24.51 L9.392,26.494 Z M9.932,18.941 L3.302,16.198 L4.065,14.351 L10.696,17.094 L9.932,18.941 Z M14.214,12.651 L9.871,6.997 L11.457,5.778 L15.8,11.433 L14.214,12.651 Z M21.096,9.301 L20.204,2.25 L22.188,2 L23.08,9.051 L21.096,9.301 Z M28.039,30.999 L19.379,30.999 L15.048,23.499 L19.379,15.999 L28.039,15.999 L32.369,23.499 L28.039,30.999 Z M34.39,22.999 L29.482,14.499 C29.304,14.189 28.974,13.999 28.616,13.999 L18.802,13.999 C18.444,13.999 18.114,14.189 17.935,14.499 L13.027,22.999 C12.849,23.309 12.849,23.689 13.027,23.999 L17.935,32.499 C18.114,32.809 18.444,32.999 18.802,32.999 L28.616,32.999 C28.974,32.999 29.304,32.809 29.482,32.499 L34.39,23.999 C34.568,23.689 34.568,23.309 34.39,22.999 L34.39,22.999 Z" id="svg15.Icon-Resource/48/Amazon-EventBridge-Event"/>
                  
            </g>
            
          </svg>
        </g>
      </g>
      <g>
        <g text-rendering="geometricPrecision" stroke-miterlimit="1.45" shape-rendering="geometricPrecision" font-family="sans-serif" transform="matrix(1,0,0,1,20,33)" stroke-linecap="butt">
          <text x="134.3978" xml:space="preserve" y="-1.1303" stroke="none">Event</text>
          <text x="130.7357" xml:space="preserve" y="13.5709" stroke="none">Trigger</text>
        </g>
      </g>
    </g>
    <g id="y.edge.4">
      <g text-rendering="geometricPrecision" stroke-miterlimit="1.45" shape-rendering="geometricPrecision" transform="matrix(1,0,0,1,20,33)" stroke-linecap="butt">
        <path fill="none" d="M188.0454 425 L226.4546 425"/>
        <path d="M180.0454 425 L192.0454 430 L189.0454 425 L192.0454 420 Z" stroke="none"/>
      </g>
    </g>
    <g id="y.edge.3">
      <g text-rendering="geometricPrecision" stroke-miterlimit="1.45" shape-rendering="geometricPrecision" transform="matrix(1,0,0,1,20,33)" stroke-linecap="butt">
        <path fill="none" d="M150 511.9683 L150 463.0317"/>
        <path d="M150 519.9683 L155 507.9683 L150 510.9683 L145 507.9683 Z" stroke="none"/>
        <path d="M150 455.0317 L145 467.0317 L150 464.0317 L155 467.0317 Z" stroke="none"/>
      </g>
    </g>
    <g id="y.edge.1">
      <g text-rendering="geometricPrecision" stroke-miterlimit="1.45" shape-rendering="geometricPrecision" transform="matrix(1,0,0,1,20,33)" stroke-linecap="butt">
        <path fill="none" d="M111.9683 550 L55.0317 550"/>
        <path d="M119.9683 550 L107.9683 545 L110.9683 550 L107.9683 555 Z" stroke="none"/>
      </g>
      <g/>
    </g>
    <g id="y.edge.0">
      <g text-rendering="geometricPrecision" stroke-miterlimit="1.45" shape-rendering="geometricPrecision" transform="matrix(1,0,0,1,20,33)" stroke-linecap="butt">
        <path fill="none" d="M180.0317 550 L236.9683 550"/>
        <path d="M244.9683 550 L232.9683 545 L235.9683 550 L232.9683 555 Z" stroke="none"/>
      </g>
    </g>
    <g id="y.edge.2">
      <g text-rendering="geometricPrecision" stroke-miterlimit="1.45" shape-rendering="geometricPrecision" transform="matrix(1,0,0,1,20,33)" stroke-linecap="butt">
        <path fill="none" d="M175 588.0464 L175 675 L244.9658 675"/>
        <path d="M175 580.0464 L170 592.0464 L175 589.0464 L180 592.0464 Z" stroke="none"/>
      </g>
    </g>
    <g id="y.edge.5">
      <g text-rendering="geometricPrecision" stroke-miterlimit="1.45" shape-rendering="geometricPrecision" transform="matrix(1,0,0,1,20,33)" stroke-linecap="butt">
        <path fill="none" d="M150 386.9683 L150 338.0317"/>
        <path d="M150 394.9683 L155 382.9683 L150 385.9683 L145 382.9683 Z" stroke="none"/>
        <path d="M150 330.0317 L145 342.0317 L150 339.0317 L155 342.0317 Z" stroke="none"/>
      </g>
    </g>
    <g id="y.edge.6">
      <g text-rendering="geometricPrecision" stroke-miterlimit="1.45" shape-rendering="geometricPrecision" transform="matrix(1,0,0,1,20,33)" stroke-linecap="butt">
        <path fill="none" d="M150 269.9683 L150 213.0317"/>
        <path d="M150 205.0317 L145 217.0317 L150 214.0317 L155 217.0317 Z" stroke="none"/>
      </g>
    </g>
    <g id="y.edge.8">
      <g text-rendering="geometricPrecision" stroke-miterlimit="1.45" shape-rendering="geometricPrecision" transform="matrix(1,0,0,1,20,33)" stroke-linecap="butt">
        <path fill="none" d="M149.9993 580.0291 L148.561 639.6101 L70.0575 638.9382"/>
        <path d="M62.0578 638.8698 L74.0146 643.9723 L71.0575 638.9468 L74.1002 633.9727 Z" stroke="none"/>
      </g>
    </g>
    <g id="y.edge.9">
      <g text-rendering="geometricPrecision" stroke-miterlimit="1.45" shape-rendering="geometricPrecision" transform="matrix(1,0,0,1,20,33)" stroke-linecap="butt">
        <path fill="none" d="M280.0317 50 L336.9683 50"/>
        <path d="M344.9683 50 L332.9683 45 L335.9683 50 L332.9683 55 Z" stroke="none"/>
      </g>
    </g>
    <g id="y.edge.10">
      <g text-rendering="geometricPrecision" stroke-miterlimit="1.45" shape-rendering="geometricPrecision" transform="matrix(1,0,0,1,20,33)" stroke-linecap="butt">
        <path fill="none" d="M280.0464 175 L375 175 L375 88.0464"/>
        <path d="M375 80.0464 L370 92.0464 L375 89.0464 L380 92.0464 Z" stroke="none"/>
      </g>
    </g>
    <g id="y.edge.11">
      <g text-rendering="geometricPrecision" stroke-miterlimit="1.45" shape-rendering="geometricPrecision" transform="matrix(1,0,0,1,20,33)" stroke-linecap="butt">
        <path fill="none" d="M250 148.9663 L250 88.0337"/>
        <path d="M250 80.0337 L245 92.0337 L250 89.0337 L255 92.0337 Z" stroke="none"/>
      </g>
    </g>
    <g id="y.edge.12">
      <g text-rendering="geometricPrecision" stroke-miterlimit="1.45" shape-rendering="geometricPrecision" transform="matrix(1,0,0,1,20,33)" stroke-linecap="butt">
        <path fill="none" d="M219.9517 175 L178.5483 175"/>
        <path d="M170.5483 175 L182.5483 180 L179.5483 175 L182.5483 170 Z" stroke="none"/>
      </g>
    </g>
    <g id="y.edge.13">
      <g text-rendering="geometricPrecision" stroke-miterlimit="1.45" shape-rendering="geometricPrecision" transform="matrix(1,0,0,1,20,33)" stroke-linecap="butt">
        <path fill="none" d="M225.4556 300 L188.0444 300"/>
        <path d="M180.0444 300 L192.0444 305 L189.0444 300 L192.0444 295 Z" stroke="none"/>
      </g>
    </g>
    <g id="y.edge.7">
      <g text-rendering="geometricPrecision" stroke-miterlimit="1.45" shape-rendering="geometricPrecision" transform="matrix(1,0,0,1,20,33)" stroke-linecap="butt">
        <path fill="none" d="M150 144.9547 L150 90.2326"/>
        <path d="M150 82.2326 L145 94.2326 L150 91.2326 L155 94.2326 Z" stroke="none"/>
      </g>
    </g>
    <g id="y.edge.14">
      <g text-rendering="geometricPrecision" stroke-miterlimit="1.45" shape-rendering="geometricPrecision" transform="matrix(1,0,0,1,20,33)" stroke-linecap="butt">
        <path fill="none" d="M179.7705 50 L211.9607 50"/>
        <path d="M219.9607 50 L207.9607 45 L210.9607 50 L207.9607 55 Z" stroke="none"/>
      </g>
    </g>
    <g visibility="hidden" id="tooltip.y.node.0" pointer-events="none">
      <g fill="rgb(255,255,225)" text-rendering="geometricPrecision" shape-rendering="geometricPrecision" font-family="'Segoe UI'" stroke="rgb(255,255,225)">
        <rect x="0" width="175" height="18" y="0" clip-path="url(#clipPath3)" stroke="none"/>
        <text fill="black" x="4" xml:space="preserve" y="14" clip-path="url(#clipPath3)" stroke="none">Res AWS IoT Certificate 48 Light</text>
      </g>
      <g font-family="'Segoe UI'" text-rendering="geometricPrecision" shape-rendering="geometricPrecision">
        <path d="M0 0 L175 0 L175 18 L0 18 L0 0 ZM1 1 L174 1 L174 17 L1 17 L1 1 Z" fill-rule="evenodd" clip-path="url(#clipPath3)" stroke="none"/>
      </g>
    </g>
    <g visibility="hidden" id="tooltip.y.node.1" pointer-events="none">
      <g fill="rgb(255,255,225)" text-rendering="geometricPrecision" shape-rendering="geometricPrecision" font-family="'Segoe UI'" stroke="rgb(255,255,225)">
        <rect x="0" width="150" height="18" y="0" clip-path="url(#clipPath4)" stroke="none"/>
        <text fill="black" x="4" xml:space="preserve" y="14" clip-path="url(#clipPath4)" stroke="none">Res AWS IoT Topic 48 Light</text>
      </g>
      <g font-family="'Segoe UI'" text-rendering="geometricPrecision" shape-rendering="geometricPrecision">
        <path d="M0 0 L150 0 L150 18 L0 18 L0 0 ZM1 1 L149 1 L149 17 L1 17 L1 1 Z" fill-rule="evenodd" clip-path="url(#clipPath4)" stroke="none"/>
      </g>
    </g>
    <g visibility="hidden" id="tooltip.y.node.2" pointer-events="none">
      <g fill="rgb(255,255,225)" text-rendering="geometricPrecision" shape-rendering="geometricPrecision" font-family="'Segoe UI'" stroke="rgb(255,255,225)">
        <rect x="0" width="201" height="18" y="0" clip-path="url(#clipPath5)" stroke="none"/>
        <text fill="black" x="4" xml:space="preserve" y="14" clip-path="url(#clipPath5)" stroke="none">Res AWS IoT MQTT Protocol 48 Light</text>
      </g>
      <g font-family="'Segoe UI'" text-rendering="geometricPrecision" shape-rendering="geometricPrecision">
        <path d="M0 0 L201 0 L201 18 L0 18 L0 0 ZM1 1 L200 1 L200 17 L1 17 L1 1 Z" fill-rule="evenodd" clip-path="url(#clipPath5)" stroke="none"/>
      </g>
    </g>
    <g visibility="hidden" id="tooltip.y.node.3" pointer-events="none">
      <g fill="rgb(255,255,225)" text-rendering="geometricPrecision" shape-rendering="geometricPrecision" font-family="'Segoe UI'" stroke="rgb(255,255,225)">
        <rect x="0" width="194" height="18" y="0" clip-path="url(#clipPath6)" stroke="none"/>
        <text fill="black" x="4" xml:space="preserve" y="14" clip-path="url(#clipPath6)" stroke="none">Res AWS IoT Thing Generic 48 Light</text>
      </g>
      <g font-family="'Segoe UI'" text-rendering="geometricPrecision" shape-rendering="geometricPrecision">
        <path d="M0 0 L194 0 L194 18 L0 18 L0 0 ZM1 1 L193 1 L193 17 L1 17 L1 1 Z" fill-rule="evenodd" clip-path="url(#clipPath6)" stroke="none"/>
      </g>
    </g>
    <g visibility="hidden" id="tooltip.y.node.4" pointer-events="none">
      <g fill="rgb(255,255,225)" text-rendering="geometricPrecision" shape-rendering="geometricPrecision" font-family="'Segoe UI'" stroke="rgb(255,255,225)">
        <rect x="0" width="242" height="18" y="0" clip-path="url(#clipPath7)" stroke="none"/>
        <text fill="black" x="4" xml:space="preserve" y="14" clip-path="url(#clipPath7)" stroke="none">Res AWS IoT Thing Humidity Sensor 48 Light</text>
      </g>
      <g font-family="'Segoe UI'" text-rendering="geometricPrecision" shape-rendering="geometricPrecision">
        <path d="M0 0 L242 0 L242 18 L0 18 L0 0 ZM1 1 L241 1 L241 17 L1 17 L1 1 Z" fill-rule="evenodd" clip-path="url(#clipPath7)" stroke="none"/>
      </g>
    </g>
    <g visibility="hidden" id="tooltip.y.node.5" pointer-events="none">
      <g fill="rgb(255,255,225)" text-rendering="geometricPrecision" shape-rendering="geometricPrecision" font-family="'Segoe UI'" stroke="rgb(255,255,225)">
        <rect x="0" width="182" height="18" y="0" clip-path="url(#clipPath8)" stroke="none"/>
        <text fill="black" x="4" xml:space="preserve" y="14" clip-path="url(#clipPath8)" stroke="none">Res AWS IoT Thing Relay 48 Light</text>
      </g>
      <g font-family="'Segoe UI'" text-rendering="geometricPrecision" shape-rendering="geometricPrecision">
        <path d="M0 0 L182 0 L182 18 L0 18 L0 0 ZM1 1 L181 1 L181 17 L1 17 L1 1 Z" fill-rule="evenodd" clip-path="url(#clipPath8)" stroke="none"/>
      </g>
    </g>
    <g visibility="hidden" id="tooltip.y.node.6" pointer-events="none">
      <g fill="rgb(255,255,225)" text-rendering="geometricPrecision" shape-rendering="geometricPrecision" font-family="'Segoe UI'" stroke="rgb(255,255,225)">
        <rect x="0" width="259" height="18" y="0" clip-path="url(#clipPath9)" stroke="none"/>
        <text fill="black" x="4" xml:space="preserve" y="14" clip-path="url(#clipPath9)" stroke="none">Res AWS IoT Thing Temperature Sensor 48 Light</text>
      </g>
      <g font-family="'Segoe UI'" text-rendering="geometricPrecision" shape-rendering="geometricPrecision">
        <path d="M0 0 L259 0 L259 18 L0 18 L0 0 ZM1 1 L258 1 L258 17 L1 17 L1 1 Z" fill-rule="evenodd" clip-path="url(#clipPath9)" stroke="none"/>
      </g>
    </g>
    <g visibility="hidden" id="tooltip.y.node.7" pointer-events="none">
      <g fill="rgb(255,255,225)" text-rendering="geometricPrecision" shape-rendering="geometricPrecision" font-family="'Segoe UI'" stroke="rgb(255,255,225)">
        <rect x="0" width="214" height="18" y="0" clip-path="url(#clipPath10)" stroke="none"/>
        <text fill="black" x="4" xml:space="preserve" y="14" clip-path="url(#clipPath10)" stroke="none">Res AWS IoT Lambda Function 48 Light</text>
      </g>
      <g font-family="'Segoe UI'" text-rendering="geometricPrecision" shape-rendering="geometricPrecision">
        <path d="M0 0 L214 0 L214 18 L0 18 L0 0 ZM1 1 L213 1 L213 17 L1 17 L1 1 Z" fill-rule="evenodd" clip-path="url(#clipPath10)" stroke="none"/>
      </g>
    </g>
    <g visibility="hidden" id="tooltip.y.node.8" pointer-events="none">
      <g fill="rgb(255,255,225)" text-rendering="geometricPrecision" shape-rendering="geometricPrecision" font-family="'Segoe UI'" stroke="rgb(255,255,225)">
        <rect x="0" width="123" height="18" y="0" clip-path="url(#clipPath11)" stroke="none"/>
        <text fill="black" x="4" xml:space="preserve" y="14" clip-path="url(#clipPath11)" stroke="none">Arch AWS IoT Core 32</text>
      </g>
      <g font-family="'Segoe UI'" text-rendering="geometricPrecision" shape-rendering="geometricPrecision">
        <path d="M0 0 L123 0 L123 18 L0 18 L0 0 ZM1 1 L122 1 L122 17 L1 17 L1 1 Z" fill-rule="evenodd" clip-path="url(#clipPath11)" stroke="none"/>
      </g>
    </g>
    <g visibility="hidden" id="tooltip.y.node.9" pointer-events="none">
      <g fill="rgb(255,255,225)" text-rendering="geometricPrecision" shape-rendering="geometricPrecision" font-family="'Segoe UI'" stroke="rgb(255,255,225)">
        <rect x="0" width="163" height="18" y="0" clip-path="url(#clipPath12)" stroke="none"/>
        <text fill="black" x="4" xml:space="preserve" y="14" clip-path="url(#clipPath12)" stroke="none">Res AWS IoT Sailboat 48 Light</text>
      </g>
      <g font-family="'Segoe UI'" text-rendering="geometricPrecision" shape-rendering="geometricPrecision">
        <path d="M0 0 L163 0 L163 18 L0 18 L0 0 ZM1 1 L162 1 L162 17 L1 17 L1 1 Z" fill-rule="evenodd" clip-path="url(#clipPath12)" stroke="none"/>
      </g>
    </g>
    <g visibility="hidden" id="tooltip.y.node.10" pointer-events="none">
      <g fill="rgb(255,255,225)" text-rendering="geometricPrecision" shape-rendering="geometricPrecision" font-family="'Segoe UI'" stroke="rgb(255,255,225)">
        <rect x="0" width="307" height="18" y="0" clip-path="url(#clipPath13)" stroke="none"/>
        <text fill="black" x="4" xml:space="preserve" y="14" clip-path="url(#clipPath13)" stroke="none">Res Amazon DynamoDB Global secondary index 48 Light</text>
      </g>
      <g font-family="'Segoe UI'" text-rendering="geometricPrecision" shape-rendering="geometricPrecision">
        <path d="M0 0 L307 0 L307 18 L0 18 L0 0 ZM1 1 L306 1 L306 17 L1 17 L1 1 Z" fill-rule="evenodd" clip-path="url(#clipPath13)" stroke="none"/>
      </g>
    </g>
    <g visibility="hidden" id="tooltip.y.node.11" pointer-events="none">
      <g fill="rgb(255,255,225)" text-rendering="geometricPrecision" shape-rendering="geometricPrecision" font-family="'Segoe UI'" stroke="rgb(255,255,225)">
        <rect x="0" width="153" height="18" y="0" clip-path="url(#clipPath14)" stroke="none"/>
        <text fill="black" x="4" xml:space="preserve" y="14" clip-path="url(#clipPath14)" stroke="none">Res AWS IoT Policy 48 Light</text>
      </g>
      <g font-family="'Segoe UI'" text-rendering="geometricPrecision" shape-rendering="geometricPrecision">
        <path d="M0 0 L153 0 L153 18 L0 18 L0 0 ZM1 1 L152 1 L152 17 L1 17 L1 1 Z" fill-rule="evenodd" clip-path="url(#clipPath14)" stroke="none"/>
      </g>
    </g>
    <g visibility="hidden" id="tooltip.y.node.12" pointer-events="none">
      <g fill="rgb(255,255,225)" text-rendering="geometricPrecision" shape-rendering="geometricPrecision" font-family="'Segoe UI'" stroke="rgb(255,255,225)">
        <rect x="0" width="417" height="18" y="0" clip-path="url(#clipPath15)" stroke="none"/>
        <text fill="black" x="4" xml:space="preserve" y="14" clip-path="url(#clipPath15)" stroke="none">Res AWS Identity Access Management Long Term Security Credential 48 Light</text>
      </g>
      <g font-family="'Segoe UI'" text-rendering="geometricPrecision" shape-rendering="geometricPrecision">
        <path d="M0 0 L417 0 L417 18 L0 18 L0 0 ZM1 1 L416 1 L416 17 L1 17 L1 1 Z" fill-rule="evenodd" clip-path="url(#clipPath15)" stroke="none"/>
      </g>
    </g>
    <g visibility="hidden" id="tooltip.y.node.13" pointer-events="none">
      <g fill="rgb(255,255,225)" text-rendering="geometricPrecision" shape-rendering="geometricPrecision" font-family="'Segoe UI'" stroke="rgb(255,255,225)">
        <rect x="0" width="321" height="18" y="0" clip-path="url(#clipPath16)" stroke="none"/>
        <text fill="black" x="4" xml:space="preserve" y="14" clip-path="url(#clipPath16)" stroke="none">Res AWS Identity Access Management Permissions 48 Light</text>
      </g>
      <g font-family="'Segoe UI'" text-rendering="geometricPrecision" shape-rendering="geometricPrecision">
        <path d="M0 0 L321 0 L321 18 L0 18 L0 0 ZM1 1 L320 1 L320 17 L1 17 L1 1 Z" fill-rule="evenodd" clip-path="url(#clipPath16)" stroke="none"/>
      </g>
    </g>
    <g visibility="hidden" id="tooltip.y.node.14" pointer-events="none">
      <g fill="rgb(255,255,225)" text-rendering="geometricPrecision" shape-rendering="geometricPrecision" font-family="'Segoe UI'" stroke="rgb(255,255,225)">
        <rect x="0" width="216" height="18" y="0" clip-path="url(#clipPath17)" stroke="none"/>
        <text fill="black" x="4" xml:space="preserve" y="14" clip-path="url(#clipPath17)" stroke="none">Res Amazon EventBridge Event 48 Light</text>
      </g>
      <g font-family="'Segoe UI'" text-rendering="geometricPrecision" shape-rendering="geometricPrecision">
        <path d="M0 0 L216 0 L216 18 L0 18 L0 0 ZM1 1 L215 1 L215 17 L1 17 L1 1 Z" fill-rule="evenodd" clip-path="url(#clipPath17)" stroke="none"/>
      </g>
    </g>
  </g>
</svg>
